<svg width="59" height="60" viewBox="0 0 59 60" fill="none" xmlns="http://www.w3.org/2000/svg">
<g clip-path="url(#clip0_693_46)">
<path d="M9.23145 32.3065V31.2019H20.0235C19.6858 30.1682 19.3776 29.208 19.0579 28.2511C17.357 23.1625 15.656 18.0733 13.9464 12.988C13.6899 12.2244 13.6512 11.4679 13.8647 10.694C14.7481 7.49531 15.6304 4.29609 16.5144 1.09795C16.534 1.02715 16.5721 0.961245 16.6478 0.783691C17.0612 1.98463 17.4534 3.09243 17.8248 4.20785C20.6063 12.5583 23.3878 20.9093 26.1611 29.2625C28.0973 35.0939 30.021 40.9303 31.9506 46.764C32.0067 46.9339 32.0623 47.1049 32.1265 47.2716C32.4386 48.0809 32.6478 48.2231 33.511 48.2231C35.0393 48.2231 36.5681 48.2231 38.0964 48.2231C38.2576 48.2231 38.4188 48.2231 38.6007 48.2231V49.2797H20.7027V48.2361H25.6573C25.5081 47.7057 25.3953 47.2307 25.2417 46.7689C23.7565 42.3012 22.2647 37.8357 20.7724 33.3707C20.7109 33.1871 20.6319 33.008 20.5469 32.8337C20.3677 32.465 20.097 32.295 19.6575 32.2972C16.3608 32.313 13.0641 32.3059 9.76737 32.3059H9.23253L9.23145 32.3065Z" fill="#001C4A"/>
<path d="M33.2036 0.656738V39.798C33.1682 39.8094 33.1328 39.8208 33.0974 39.8317C33.0228 39.7146 32.9346 39.6035 32.8757 39.4788C30.079 33.5961 28.1199 27.4487 26.9914 21.0312C26.4713 18.0722 26.218 15.1044 26.2731 12.0975C26.3324 8.8476 26.2867 5.59555 26.2867 2.34458V1.79123H20.874V0.656738H33.2036Z" fill="#001C4A"/>
<path d="M36.5259 25.024C37.3598 24.5693 38.2318 24.1902 38.9964 23.6581C41.2333 22.102 42.3917 19.8521 42.9026 17.234C42.9625 16.9268 43.0698 16.8288 43.3623 16.849C43.6428 16.868 43.9254 16.8533 44.2391 16.8533V33.1708H42.9745C42.6085 31.3931 41.9408 29.7128 40.8041 28.245C39.6603 26.768 38.2116 25.6923 36.5254 25.0251L36.5259 25.024Z" fill="#001C4A"/>
<path d="M49.5305 14.0418H48.2288C48.2288 13.0348 48.2821 12.049 48.2184 11.0708C48.0512 8.51372 47.3078 6.16304 45.5143 4.24809C43.8869 2.51068 41.8499 1.84839 39.5058 2.04338C39.344 2.05699 39.1834 2.07714 38.9922 2.0973V0.668701H49.5299V14.0418H49.5305Z" fill="#001C4A"/>
<path d="M27.3612 58.5762C27.841 58.757 28.1814 58.9536 28.5403 59.0005C28.8824 59.0451 29.2451 58.9329 29.5986 58.8904C29.2691 59.3104 28.3579 59.6252 27.9243 59.4068C27.3988 59.1421 26.9331 58.7145 26.2403 59.0941C26.2403 59.0304 26.2392 58.9662 26.2392 58.9024C26.4892 58.7788 26.7397 58.6546 27.0398 58.5059C26.231 58.3649 25.5464 58.0876 25.0715 57.4314C24.6113 56.7952 24.4288 56.0828 24.5051 55.3132C24.6521 53.8215 25.6543 52.8542 27.1406 52.7398C28.5452 52.632 29.7385 53.4664 30.0686 54.8007C30.2908 55.6999 30.1759 56.5512 29.6645 57.3377C29.1481 58.1307 28.3214 58.3839 27.3617 58.5762H27.3612ZM29.2064 56.8829C29.5343 56.0028 29.4989 55.0213 29.1155 54.164C29.0621 54.0442 29.0022 53.9277 28.9336 53.8171C28.2304 52.6815 26.6363 52.6489 25.803 53.6946C25.0737 54.6096 24.9849 56.2168 25.6058 57.2522C26.4445 58.6508 28.2898 58.6513 29.0583 57.2146C29.1155 57.1084 29.1634 56.9973 29.2064 56.8824V56.8829Z" fill="#001C4A"/>
<path d="M42.3119 55.8893C42.3489 56.7024 42.3865 57.527 42.4246 58.3592H41.5957C41.7787 56.5298 41.7515 54.7123 41.6208 52.9041C42.2879 52.9041 43.0651 52.8529 43.8325 52.9182C44.5999 52.9836 45.1571 53.5642 45.2361 54.2259C45.308 54.8321 44.8979 55.3773 44.1375 55.6877C44.0853 55.709 44.0346 55.7351 43.9104 55.7934C44.6076 56.1305 44.8423 56.7389 45.0596 57.3625C45.2753 57.9818 45.3336 58.0384 45.8701 58.2764C45.394 58.46 44.7563 58.1985 44.4284 57.6441C44.247 57.3375 44.1234 56.996 43.9763 56.6692C43.6436 55.929 43.2264 55.7188 42.3119 55.8893ZM42.3653 55.6246C42.7634 55.6022 43.1376 55.6218 43.4943 55.5516C44.1354 55.4258 44.5439 54.9171 44.5395 54.3327C44.5351 53.7499 44.1152 53.2423 43.4856 53.1143C43.2122 53.0588 42.9203 53.0566 42.6414 53.0811C42.5423 53.0898 42.38 53.2478 42.3773 53.3414C42.3555 54.0811 42.3653 54.8218 42.3653 55.6246Z" fill="#001C4A"/>
<path d="M5.62229 56.3208C5.65714 57.0397 5.68873 57.6835 5.72141 58.3463H4.89355C5.0466 56.5234 5.03843 54.7228 4.89737 52.8176C5.62991 52.8607 6.46811 52.828 7.272 52.9794C8.13853 53.1422 8.60365 53.9336 8.5078 54.7974C8.41466 55.6367 7.77035 56.2532 6.88858 56.3159C6.50297 56.3431 6.11355 56.3202 5.62229 56.3202V56.3208ZM5.65387 56.1367C5.92238 56.1367 6.11519 56.1345 6.30744 56.1367C6.9169 56.1454 7.39074 55.9003 7.64617 55.3409C7.92721 54.7255 7.88636 54.1128 7.4659 53.5654C7.05742 53.0333 6.46321 53.0295 5.87282 53.0829C5.79221 53.0899 5.66477 53.2604 5.66313 53.3568C5.64679 54.2653 5.65333 55.1737 5.65333 56.1367H5.65387Z" fill="#001C4A"/>
<path d="M36.8389 52.878H40.33V53.6339C40.0397 53.0882 39.6443 53.0425 39.2097 53.0621C38.8214 53.0795 38.4314 53.0724 38.042 53.0621C37.8007 53.0555 37.6722 53.1558 37.6711 53.3965C37.6678 54.0822 37.67 54.7684 37.67 55.5081C38.3982 55.4302 39.1264 55.7188 39.8121 55.2058V55.8446C39.1389 55.7804 38.4445 55.7134 37.6841 55.6404C37.6841 56.4557 37.6743 57.1817 37.6972 57.9067C37.6999 57.9922 37.8797 58.1398 37.9815 58.1441C38.5643 58.167 39.1514 58.1888 39.7309 58.1376C39.9624 58.1169 40.177 57.9078 40.3997 57.7847V58.3375H36.8639C37.0714 57.5221 37.06 53.506 36.8394 52.8774L36.8389 52.878Z" fill="#001C4A"/>
<path d="M10.5071 55.5151C11.2642 55.4329 11.9934 55.7123 12.6688 55.2106V55.8462C11.988 55.7803 11.2952 55.7134 10.5425 55.6404C10.5425 56.4769 10.5349 57.2324 10.5561 57.9861C10.5578 58.0482 10.7511 58.1528 10.8579 58.1561C11.4118 58.1713 11.9711 58.1996 12.5196 58.1408C12.7761 58.1136 13.0135 57.9006 13.2619 57.771V58.3374H9.76367C9.94776 56.5314 9.91399 54.7276 9.7909 52.8872H13.1726V53.6116C12.8202 52.9411 12.2717 53.0675 11.7663 53.0659C10.9268 53.0637 10.5071 53.4814 10.5071 54.3191C10.5071 54.6927 10.5071 55.0669 10.5071 55.5156V55.5151Z" fill="#001C4A"/>
<path d="M53.9286 58.3589H52.9727C52.8502 57.9139 52.7342 57.4913 52.6051 57.0229C52.0147 57.2995 51.53 57.1525 51.0262 56.9738C49.7212 56.512 49.3361 56.957 49.2065 58.348H48.749C49.5687 56.5256 50.3966 54.6853 51.2756 52.7322C51.4216 52.9647 51.5256 53.0944 51.5915 53.2409C52.1492 54.4794 52.6966 55.7234 53.2548 56.9613C53.4613 57.4194 53.6906 57.8671 53.928 58.3583L53.9286 58.3589ZM52.4591 56.8317C51.9891 55.7784 51.5409 54.774 51.0621 53.7022C50.6106 54.7163 50.1891 55.664 49.713 56.7337C50.7016 56.2734 51.4995 57.3344 52.4586 56.8317H52.4591Z" fill="#001C4A"/>
<path d="M19.8472 52.873C19.8009 53.2156 19.7328 53.5048 19.7279 53.7951C19.7132 54.6633 19.7132 55.5314 19.7252 56.3996C19.7383 57.3407 20.2736 58.0662 21.0356 58.2084C21.9816 58.3848 22.8868 57.6958 22.9451 56.6594C23.0061 55.5854 22.9707 54.5048 22.9604 53.4275C22.9587 53.2581 22.8656 53.0898 22.8057 52.8905H23.3182C23.273 53.2429 23.1978 53.5887 23.1896 53.9362C23.1706 54.7439 23.194 55.5527 23.1826 56.3609C23.1602 57.9164 21.8052 58.8946 20.3875 58.3886C19.5923 58.1049 19.0923 57.3729 19.0787 56.4323C19.0662 55.6093 19.0912 54.7853 19.0711 53.9629C19.0624 53.6034 18.9817 53.2456 18.9316 52.873H19.8466H19.8472Z" fill="#001C4A"/>
<path d="M31.3242 52.8774H32.2441C32.2054 53.2761 32.145 53.6525 32.1368 54.0299C32.1199 54.7782 32.1287 55.5277 32.1341 56.2765C32.1352 56.4546 32.1466 56.6366 32.1837 56.8108C32.3776 57.7242 33.0181 58.2797 33.816 58.24C34.6215 58.1997 35.311 57.5434 35.3562 56.6447C35.4107 55.5691 35.3796 54.489 35.3682 53.4106C35.3665 53.2424 35.2707 53.0757 35.2102 52.8818H35.7217C35.6792 53.2685 35.6111 53.6438 35.6018 54.0196C35.5833 54.8131 35.6138 55.6077 35.5904 56.4007C35.5659 57.2351 35.2364 57.9181 34.4521 58.2966C33.7217 58.649 32.9952 58.6082 32.3264 58.1387C31.7278 57.7182 31.4941 57.0995 31.4887 56.3882C31.4822 55.5195 31.4996 54.6502 31.48 53.7821C31.4734 53.4934 31.3836 53.207 31.3242 52.878V52.8774Z" fill="#001C4A"/>
<path d="M17.949 57.7171V58.3238C17.8847 58.3429 17.8433 58.3663 17.8014 58.3663C16.6647 58.3685 15.5286 58.368 14.4611 58.368C14.6032 56.538 14.6098 54.7238 14.4551 52.8823H15.3053C15.2742 53.2805 15.2198 53.6857 15.2159 54.0914C15.204 55.3033 15.2198 56.5151 15.2061 57.7269C15.2023 58.0581 15.3134 58.1828 15.6473 58.1653C16.0803 58.143 16.5155 58.1452 16.9484 58.1626C17.3526 58.179 17.6919 58.0989 17.949 57.7171Z" fill="#001C4A"/>
<path d="M47.7664 58.354H46.755C47.0033 57.6094 46.9919 53.4996 46.7305 52.8536C46.9821 52.8536 47.219 52.852 47.4559 52.8542C47.5561 52.8552 47.6564 52.8651 47.7642 52.8716C47.5164 53.6069 47.512 57.6312 47.7658 58.354H47.7664Z" fill="#001C4A"/>
</g>
<defs>
<clipPath id="clip0_693_46">
<rect width="58.8213" height="58.8213" fill="white" transform="translate(0 0.656738)"/>
</clipPath>
</defs>
</svg>
