<svg width="65" height="59" viewBox="0 0 65 59" fill="none" xmlns="http://www.w3.org/2000/svg">
<g clip-path="url(#clip0_717_42)">
<path d="M26.5014 35.5213C26.6308 34.5466 25.6461 34.3401 25.6461 34.3401C25.595 34.3419 25.099 34.3593 24.7837 34.4811C24.6266 34.54 24.4659 34.6054 24.3467 34.6816C24.2173 34.7554 24.0861 34.8335 23.9886 34.9139C23.5553 35.2368 23.2562 35.5753 22.9914 35.9072C22.4581 36.5746 22.0789 37.2475 21.7106 37.9155C20.9908 39.2546 20.4016 40.596 19.8286 41.9369C18.6863 44.6144 18.4323 45.2128 17.9394 46.6028C17.4453 47.9971 14.5811 56.6346 13.8047 58.3116C16.4769 54.8424 18.4522 50.9357 19.4013 49.1945C19.5921 48.8446 19.766 48.4881 19.9279 48.1244C21.06 45.5849 21.1756 45.5819 22.3305 43.0815C22.8806 41.7544 23.4987 40.4256 24.3142 39.1789C24.8029 38.5283 25.1755 37.9323 25.5914 37.3903C25.5914 37.3903 26.4033 36.2613 26.502 35.5207L26.5014 35.5213Z" fill="#001C4A"/>
<path d="M27.7686 6.87658C22.9766 9.26119 18.8816 7.2091 18.8816 7.2091L14.7625 5.36167C13.9585 4.94993 13.2706 4.8587 12.2913 4.74646C10.3251 4.53639 8.8638 4.89231 7.44764 5.92046C6.02968 6.94321 5.36764 8.62138 5.2563 10.4028C5.19732 11.2941 5.23824 12.2118 5.3857 13.1319C5.50847 14.0514 5.73958 14.9721 5.98514 15.888L6.19037 16.4462L6.49009 17.1377L7.07208 18.5235C7.45667 19.4484 7.83343 20.3752 8.20357 21.3055C8.94264 23.1661 9.65463 25.0363 10.3209 26.9282C10.9727 28.8248 11.5794 30.7377 12.056 32.7207C12.1782 33.1541 12.2847 33.8983 12.3082 34.3353C12.3497 34.8365 12.3804 35.3358 12.4093 35.8358C12.4617 36.8351 12.709 38.6454 12.4316 40.6548C12.2962 41.6578 12.0723 43.498 11.8935 44.4421C11.6413 45.3508 10.9119 49.3158 10.741 50.6338C10.7205 50.7911 10.4587 52.4921 10.4545 52.6505C10.4166 54.124 9.99528 55.3112 12.381 58.3116C10.5081 57.4881 8.9613 55.7788 8.94866 55.7632C7.07931 53.456 6.67607 50.4616 6.81449 47.9863C6.89093 46.6149 7.24662 44.4247 7.41454 43.2333C7.54995 42.2322 7.79491 39.7683 7.89 38.8164C8.09042 36.9186 7.81236 35.3382 7.74255 34.3749C7.70704 33.8935 7.66972 33.4122 7.62218 32.9338C7.59931 32.6973 7.57523 32.4386 7.53912 32.2754C7.51926 32.177 7.51745 32.1031 7.48556 31.9831L7.39769 31.6356C6.93847 29.7797 6.33783 27.9125 5.69324 26.0591C5.06009 24.2003 4.37639 22.348 3.6662 20.5036C3.31051 19.5817 2.94759 18.661 2.57685 17.7433L2.01593 16.3688L1.73486 15.6828C1.63917 15.4133 1.53324 15.1054 1.4544 14.8347C1.21908 13.8347 1 12.8288 0.893473 11.7922C0.764075 10.7635 0.74301 9.70474 0.848936 8.63818C0.959677 7.57462 1.20945 6.48345 1.74269 5.4583C2.27232 4.43796 3.08662 3.49384 4.1188 2.82341C5.15519 2.16018 6.34625 1.74784 7.53732 1.58699C8.73019 1.40933 9.92486 1.44954 11.0786 1.64161C12.2306 1.85048 12.9046 2.13438 13.9549 2.75198L16.6861 4.40014C17.1236 4.68284 17.5666 4.96974 18.0011 5.23143C18.2063 5.36227 18.429 5.4619 18.6625 5.57654C18.8937 5.68458 19.1163 5.81002 19.3589 5.89825C20.3002 6.31299 21.3137 6.59269 22.3423 6.82377C23.3744 7.04704 25.7512 7.16528 27.7674 6.87538L27.7686 6.87658Z" fill="#001C4A"/>
<path d="M17.6012 8.62852C18.0423 8.94543 18.5094 9.19691 18.9957 9.37997C19.2322 9.48681 19.4784 9.56304 19.7239 9.63626C19.9647 9.72269 20.2168 9.7653 20.4648 9.81512C21.4579 9.98858 22.4581 10.0612 23.4428 9.88535C25.4108 9.62966 27.2886 8.81998 29.0231 7.72581L29.3535 7.53495L29.6719 7.31107L30.3057 6.86092L30.9406 6.41737C31.1501 6.26552 31.3475 6.08606 31.5515 5.9222L32.766 4.92406C33.203 4.56994 33.6231 4.18341 34.0811 3.8497C35.8758 2.47643 37.8962 1.31264 40.1917 0.849882C41.3358 0.638611 42.5504 0.609201 43.742 0.916505C44.3372 1.06836 44.9162 1.31624 45.4693 1.62234C46.017 1.94405 46.5316 2.33959 46.9896 2.80595C47.8996 3.74586 48.5911 4.94087 48.951 6.27152C49.1274 6.93835 49.2273 7.63818 49.2141 8.35663C49.2062 8.71555 49.1683 9.07867 49.0979 9.44059C49.0329 9.76711 48.9649 10.0276 48.8987 10.3241C48.3462 12.6103 46.3005 16.8597 45.5012 19.042C46.1061 14.3815 45.7444 15.4426 46.4913 10.8751C46.5322 10.599 46.5876 10.2905 46.6171 10.0414C46.6411 9.82713 46.6484 9.60565 46.6363 9.37937C46.6147 8.92742 46.5256 8.46226 46.3787 8.01691C46.073 7.12861 45.5662 6.31594 44.9156 5.70853C43.6192 4.46011 41.7944 4.11439 39.9937 4.47871C39.0879 4.64497 38.1821 4.98228 37.2998 5.41383C36.4145 5.84237 35.5484 6.36455 34.7106 6.96355C34.2827 7.24385 33.8831 7.58176 33.4624 7.88967L32.1046 8.8788C31.8759 9.03906 31.6568 9.21312 31.4203 9.36197L30.7023 9.79231L29.9831 10.2161L29.6226 10.4249L29.2452 10.6032C27.2729 11.6049 25.5607 12.2646 23.3615 12.1943C23.0871 12.1787 21.5198 12.0185 20.9041 11.7118C19.7414 11.132 18.6352 10.3649 17.6006 8.62912L17.6012 8.62852Z" fill="#001C4A"/>
<path d="M34.2253 38.3938C34.2253 38.8289 34.1435 39.1632 33.9798 39.3973C33.8161 39.6314 33.5825 39.7478 33.2786 39.7478C32.9747 39.7478 32.7387 39.6314 32.5756 39.3979C32.4119 39.165 32.3301 38.8289 32.3301 38.3902C32.3301 37.9514 32.4119 37.6213 32.5756 37.389C32.7393 37.1573 32.9747 37.0415 33.2828 37.0415C33.591 37.0415 33.8197 37.1579 33.9822 37.3914C34.1447 37.6249 34.2253 37.9586 34.2253 38.3938ZM32.8314 38.3938C32.8314 38.6939 32.8693 38.9219 32.9452 39.0786C33.021 39.2358 33.1317 39.3145 33.2786 39.3145C33.5747 39.3145 33.7222 39.0078 33.7222 38.3938C33.7222 37.7798 33.5759 37.4731 33.2822 37.4731C33.1329 37.4731 33.0204 37.5511 32.9446 37.7077C32.8693 37.8638 32.8308 38.0931 32.8308 38.3938H32.8314Z" fill="#001C4A"/>
<path d="M36.7256 38.3722C36.7256 38.8062 36.6371 39.1381 36.4596 39.3674C36.2826 39.5973 36.0274 39.7119 35.694 39.7119H35.0488V37.083H35.7536C36.0599 37.083 36.2989 37.1958 36.4698 37.4215C36.6401 37.6478 36.7256 37.9641 36.7256 38.3716V38.3722ZM36.2224 38.3866C36.2224 37.7996 36.0599 37.5055 35.7355 37.5055H35.5393V39.284H35.6976C35.877 39.284 36.0088 39.2095 36.0942 39.0601C36.1797 38.9112 36.2224 38.6861 36.2224 38.3866Z" fill="#001C4A"/>
<path d="M39.363 38.3938C39.363 38.8289 39.2812 39.1632 39.1175 39.3973C38.9537 39.6308 38.7202 39.7478 38.4163 39.7478C38.1124 39.7478 37.8764 39.6314 37.7133 39.3979C37.5496 39.165 37.4678 38.8289 37.4678 38.3902C37.4678 37.9514 37.5496 37.6213 37.7133 37.389C37.877 37.1573 38.1124 37.0415 38.4205 37.0415C38.7287 37.0415 38.9574 37.1579 39.1199 37.3914C39.2824 37.6249 39.363 37.9586 39.363 38.3938ZM37.9691 38.3938C37.9691 38.6939 38.007 38.9219 38.0829 39.0786C38.1587 39.2358 38.2694 39.3145 38.4163 39.3145C38.7124 39.3145 38.8599 39.0078 38.8599 38.3938C38.8599 37.7798 38.7136 37.4731 38.4199 37.4731C38.2706 37.4731 38.1581 37.5511 38.0823 37.7077C38.007 37.8638 37.9685 38.0931 37.9685 38.3938H37.9691Z" fill="#001C4A"/>
<path d="M42.033 39.7118H41.4342L40.6193 37.8073H40.5958C40.6259 37.952 40.6409 38.108 40.6409 38.2749V39.7118H40.1865V37.0829H40.789L41.5967 38.9669H41.6165C41.5937 38.8415 41.5822 38.6914 41.5822 38.5174V37.0823H42.033V39.7112V39.7118Z" fill="#001C4A"/>
<path d="M43.747 39.7119H43.2589V37.5128H42.7539V37.083H44.2525V37.5128H43.7476V39.7119H43.747Z" fill="#001C4A"/>
<path d="M46.738 38.3938C46.738 38.8289 46.6562 39.1632 46.4924 39.3973C46.3287 39.6314 46.0952 39.7478 45.7913 39.7478C45.4874 39.7478 45.2514 39.6314 45.0883 39.3979C44.9246 39.165 44.8428 38.8289 44.8428 38.3902C44.8428 37.9514 44.9246 37.6213 45.0883 37.389C45.252 37.1573 45.4874 37.0415 45.7955 37.0415C46.1037 37.0415 46.3324 37.1579 46.4949 37.3914C46.6574 37.6249 46.738 37.9586 46.738 38.3938ZM45.3441 38.3938C45.3441 38.6939 45.382 38.9219 45.4579 39.0786C45.5337 39.2358 45.6444 39.3145 45.7913 39.3145C46.0874 39.3145 46.2349 39.0078 46.2349 38.3938C46.2349 37.7798 46.0886 37.4731 45.7949 37.4731C45.6456 37.4731 45.5331 37.5511 45.4573 37.7077C45.382 37.8638 45.3435 38.0931 45.3435 38.3938H45.3441Z" fill="#001C4A"/>
<path d="M47.5611 39.7119V37.083H48.0517V39.284H48.7311V39.7119H47.5605H47.5611Z" fill="#001C4A"/>
<path d="M51.2986 38.3938C51.2986 38.8289 51.2167 39.1632 51.053 39.3973C50.8893 39.6314 50.6558 39.7478 50.3518 39.7478C50.0479 39.7478 49.812 39.6314 49.6489 39.3979C49.4852 39.165 49.4033 38.8289 49.4033 38.3902C49.4033 37.9514 49.4852 37.6213 49.6489 37.389C49.8126 37.1573 50.0479 37.0415 50.3561 37.0415C50.6642 37.0415 50.8929 37.1579 51.0554 37.3914C51.2179 37.6249 51.2986 37.9586 51.2986 38.3938ZM49.9047 38.3938C49.9047 38.6939 49.9426 38.9219 50.0184 39.0786C50.0942 39.2358 50.205 39.3145 50.3518 39.3145C50.648 39.3145 50.7954 39.0078 50.7954 38.3938C50.7954 37.7798 50.6492 37.4731 50.3555 37.4731C50.2062 37.4731 50.0936 37.5511 50.0178 37.7077C49.9426 37.8638 49.9041 38.0931 49.9041 38.3938H49.9047Z" fill="#001C4A"/>
<path d="M52.9191 38.2534H53.725V39.602C53.4969 39.6993 53.2537 39.7479 52.9968 39.7479C52.6904 39.7479 52.4545 39.6314 52.289 39.3992C52.1235 39.1669 52.041 38.8314 52.041 38.3938C52.041 37.9563 52.1355 37.6418 52.3251 37.4029C52.5141 37.164 52.7789 37.0452 53.1189 37.0452C53.329 37.0452 53.53 37.0992 53.7214 37.2072L53.5661 37.6064C53.4169 37.5199 53.2772 37.4767 53.1478 37.4767C52.9618 37.4767 52.8144 37.5601 52.7055 37.7258C52.5965 37.8921 52.5418 38.1177 52.5418 38.4046C52.5418 38.6915 52.5815 38.9256 52.6597 39.0823C52.7386 39.2395 52.8529 39.3181 53.0034 39.3181C53.0828 39.3181 53.1635 39.3079 53.2447 39.2875V38.6849H52.9185V38.2534H52.9191Z" fill="#001C4A"/>
<path d="M54.6357 36.8722V36.8236C54.6851 36.76 54.7423 36.67 54.8073 36.5517C54.8723 36.4341 54.918 36.3446 54.9457 36.2822H55.5193V36.32C55.4904 36.3717 55.4188 36.4551 55.3044 36.5691C55.1907 36.6838 55.0799 36.7846 54.9728 36.8722H54.6357ZM54.6556 39.7118V37.0829H55.1172V39.7118H54.6556Z" fill="#001C4A"/>
<path d="M57.3608 39.7117L57.2097 39.0479H56.523L56.3714 39.7117H55.8809L56.5333 37.072H57.1989L57.8531 39.7117H57.3608ZM57.1177 38.6145L56.9774 38.0035C56.969 37.9663 56.9497 37.8727 56.9203 37.7238C56.8908 37.5744 56.8733 37.4748 56.8673 37.4243C56.8516 37.5276 56.8318 37.641 56.8077 37.7653C56.7836 37.8889 56.721 38.1728 56.6205 38.6145H57.1183H57.1177Z" fill="#001C4A"/>
<path d="M28.432 28.0062C28.1443 28.0062 27.9156 27.9726 27.7471 27.9048V26.9408C27.924 26.9949 28.0913 27.0219 28.2484 27.0219C28.4741 27.0219 28.6396 26.9505 28.7437 26.8064C28.8485 26.6624 28.9008 26.4487 28.9008 26.1636V20.3452H30.01V26.1072C30.01 26.4973 29.9444 26.8364 29.8126 27.1239C29.6808 27.4108 29.4948 27.6305 29.2541 27.7805C29.0134 27.9312 28.7395 28.0062 28.4326 28.0062H28.432Z" fill="#001C4A"/>
<path d="M34.8774 26.2902L34.5343 24.7897H32.981L32.6385 26.2902H31.5293L33.005 20.3206H34.5097L35.9902 26.2902H34.8768H34.8774ZM34.3267 23.8095L34.0089 22.4273C33.9897 22.3432 33.9469 22.1326 33.8807 21.7947C33.8139 21.4573 33.7742 21.2317 33.7604 21.1176C33.7249 21.3511 33.6797 21.6074 33.6262 21.8883C33.572 22.1686 33.4299 22.809 33.2018 23.8095H34.3273H34.3267Z" fill="#001C4A"/>
<path d="M40.3845 26.2901H37.1592V25.5177L39.0634 21.3096H37.2158V20.3457H40.3225V21.1182L38.4183 25.3232H40.3839V26.2907L40.3845 26.2901Z" fill="#001C4A"/>
<path d="M44.2073 26.2902L43.074 21.2275H43.0288C43.0806 21.6176 43.1065 21.976 43.1065 22.3013V26.2902H42.0791V20.3452H43.7835L44.8031 25.0172H44.8356L45.8473 20.3452H47.5764V26.2902H46.5244V22.2605C46.5244 21.9268 46.5436 21.5858 46.5816 21.2359H46.5491L45.42 26.2902H44.2091H44.2073Z" fill="#001C4A"/>
<path d="M49.7764 19.8698V19.7599C49.8877 19.6159 50.0171 19.4118 50.1634 19.1459C50.3102 18.8806 50.4149 18.6772 50.4775 18.5361H51.7745V18.622C51.7089 18.7384 51.5476 18.9263 51.2894 19.185C51.0312 19.4436 50.7809 19.6723 50.5395 19.8698H49.777H49.7764ZM49.8209 26.2902V20.3451H50.8645V26.2902H49.8209Z" fill="#001C4A"/>
<path d="M57.2942 26.2901H55.9406L54.0978 21.9836H54.0448C54.1128 22.3119 54.1465 22.6643 54.1465 23.0406V26.2895H53.1191V20.3445H54.4811L56.3084 24.6059H56.3529C56.3011 24.3214 56.2753 23.9829 56.2753 23.5898V20.3451H57.2948V26.2901H57.2942Z" fill="#001C4A"/>
<path d="M28.8693 34.7507H27.7686V28.8057H30.4396V29.7612H28.8693V31.4123H30.333V32.3679H28.8693V34.7507Z" fill="#001C4A"/>
<path d="M34.867 34.7507H32.1797V28.8057H34.867V29.7612H33.2889V31.1759H34.7526V32.1356H33.2889V33.7826H34.867V34.7501V34.7507Z" fill="#001C4A"/>
<path d="M37.8377 32.4369V34.7507H36.7285V28.8057H38.1802C38.7947 28.8057 39.2479 28.9509 39.5404 29.2408C39.8323 29.5313 39.9785 29.9743 39.9785 30.5709C39.9785 31.3217 39.7239 31.8463 39.216 32.1446L40.3613 34.7507H39.175L38.2331 32.4369H37.8377ZM37.8377 31.4856H38.123C38.3842 31.4856 38.5714 31.4117 38.6857 31.2641C38.8001 31.1164 38.8573 30.8956 38.8573 30.6033C38.8573 30.311 38.7965 30.0835 38.6755 29.9545C38.5545 29.8254 38.368 29.7612 38.1152 29.7612H37.8377V31.4856Z" fill="#001C4A"/>
<path d="M43.0067 32.4369V34.7507H41.8975V28.8057H43.3491C43.9636 28.8057 44.4168 28.9509 44.7093 29.2408C45.0012 29.5313 45.1475 29.9743 45.1475 30.5709C45.1475 31.3217 44.8929 31.8463 44.3849 32.1446L45.5302 34.7507H44.344L43.4021 32.4369H43.0067ZM43.0067 31.4856H43.292C43.5532 31.4856 43.7403 31.4117 43.8547 31.2641C43.969 31.1164 44.0262 30.8956 44.0262 30.6033C44.0262 30.311 43.9654 30.0835 43.8445 29.9545C43.7235 29.8254 43.5369 29.7612 43.2841 29.7612H43.0067V31.4856Z" fill="#001C4A"/>
<path d="M49.7537 34.7507H47.0664V28.8057H49.7537V29.7612H48.1756V31.1759H49.6393V32.1356H48.1756V33.7826H49.7537V34.7501V34.7507Z" fill="#001C4A"/>
<path d="M51.8154 34.7507V28.8057H52.859V34.7507H51.8154Z" fill="#001C4A"/>
<path d="M56.2225 32.4369V34.7507H55.1133V28.8057H56.5649C57.1794 28.8057 57.6326 28.9509 57.9251 29.2408C58.217 29.5313 58.3633 29.9743 58.3633 30.5709C58.3633 31.3217 58.1087 31.8463 57.6007 32.1446L58.7461 34.7507H57.5598L56.6179 32.4369H56.2225ZM56.2225 31.4856H56.5078C56.769 31.4856 56.9562 31.4117 57.0705 31.2641C57.1849 31.1164 57.242 30.8956 57.242 30.6033C57.242 30.311 57.1812 30.0835 57.0603 29.9545C56.9393 29.8254 56.7527 29.7612 56.5 29.7612H56.2225V31.4856Z" fill="#001C4A"/>
<path d="M63.104 34.7506L62.7609 33.2501H61.2075L60.8651 34.7506H59.7559L61.2316 28.781H62.7362L64.2168 34.7506H63.1034H63.104ZM62.5533 32.27L62.2355 30.8877C62.2162 30.8037 62.1735 30.593 62.1073 30.2551C62.0405 29.9178 62.0008 29.6921 61.9869 29.5781C61.9514 29.8116 61.9063 30.0678 61.8527 30.3487C61.7985 30.629 61.6565 31.2695 61.4284 32.27H62.5539H62.5533Z" fill="#001C4A"/>
</g>
<defs>
<clipPath id="clip0_717_42">
<rect width="65" height="59" fill="white"/>
</clipPath>
</defs>
</svg>
