<svg width="180" height="53" viewBox="0 0 180 53" fill="none" xmlns="http://www.w3.org/2000/svg">
<path d="M128.889 24.3121C127.083 25.3913 125.35 26.5833 123.606 27.7584C123.324 27.947 123.051 28.1524 122.751 28.3056C122.49 28.4403 122.178 28.8427 121.933 28.5615C121.65 28.2332 122.136 27.9958 122.291 27.7231C122.43 27.479 122.703 27.3224 122.823 26.8847C122.328 27.1288 121.932 27.3173 121.543 27.5194C120.749 27.9319 119.927 28.2871 119.051 28.4538C117.259 28.7972 116.624 28.2837 116.434 26.3375C115.361 26.9251 114.345 27.5716 113.215 27.9824C112.194 28.3544 111.164 28.6895 110.06 28.6592C108.812 28.6255 108.377 28.1238 108.491 26.8645C108.502 26.7264 108.514 26.5883 108.532 26.3796C106.933 27.2736 105.299 27.9958 103.898 29.0346C102.851 29.8108 102.108 31.0011 101.225 32.0028C99.4911 33.9727 97.7551 35.9391 96.0175 37.9056C95.8892 38.0504 95.761 38.2053 95.606 38.3181C95.2195 38.5976 94.9197 39.3198 94.3816 38.973C93.8335 38.6178 94.0517 37.9022 94.2083 37.3517C94.4882 36.3718 95.0946 35.5721 95.756 34.8246C97.7201 32.6022 100.046 30.8176 102.553 29.2855C103.654 28.612 104.299 27.5817 105.109 26.6422C104.794 26.4604 104.651 26.7011 104.482 26.7988C103.439 27.4066 102.403 28.0245 101.232 28.3612C101.117 28.3949 101.005 28.447 100.887 28.4689C99.5744 28.703 99.1945 28.309 99.3828 26.9099C99.4811 26.8358 99.5344 26.7449 99.4561 26.6304C99.4511 26.622 99.3228 26.6995 99.2528 26.7382C98.3915 27.1625 97.5452 27.6221 96.6639 27.9975C96.1208 28.2282 95.4394 28.5077 94.978 27.9824C94.5498 27.4941 94.8797 26.8729 95.1146 26.3375C95.626 25.1707 96.3974 24.169 97.1387 23.1504C97.2037 23.0713 97.3753 22.9989 97.2453 22.8861C97.147 22.8002 97.0554 22.9366 96.9871 23.0241C95.5494 23.8255 94.2449 24.8357 92.8589 25.7162C91.9209 26.3139 90.998 26.9352 90.065 27.5429C89.8101 27.7096 89.4936 28.0144 89.2404 27.7046C88.9905 27.3982 89.357 27.1271 89.5469 26.8981C90.3682 25.9048 91.2079 24.9266 92.0375 23.9417C92.1258 23.8373 92.2641 23.7548 92.2025 23.509C91.3628 23.9198 90.6764 24.5225 89.9268 25.0226C89.5636 25.2633 89.2237 25.5411 88.8556 25.7718C88.7139 25.861 88.514 26.1102 88.3674 25.9048C88.1792 25.6421 88.5057 25.5445 88.659 25.425C89.0221 25.1404 89.3937 24.8694 89.7718 24.6067C90.8064 23.8878 91.8393 23.1706 92.8838 22.4685C93.1687 22.2766 93.5003 21.9567 93.8301 22.349C94.145 22.7228 93.8251 23.0544 93.6119 23.3204C93.0954 23.9653 92.5273 24.568 91.9942 25.1994C91.8326 25.3913 91.5777 25.5378 91.5861 25.861C91.8743 25.9688 92.0359 25.7347 92.2175 25.6169C94.2633 24.2801 96.3007 22.9298 98.3399 21.583C98.4615 21.5021 98.5698 21.4011 98.6981 21.3355C98.9263 21.2193 99.1762 21.0004 99.4044 21.3018C99.5977 21.5577 99.3928 21.758 99.2362 21.9416C98.6847 22.5898 98.1183 23.2262 97.5785 23.8828C96.9921 24.5966 96.4407 25.3408 96.0825 26.2062C95.9426 26.5446 95.786 26.9234 96.0442 27.2483C96.3324 27.6103 96.7439 27.4234 97.0488 27.2837C98.4032 26.6574 99.7576 26.0395 100.88 24.9872C102.43 23.5343 104.137 22.3103 106.258 21.8422C106.663 21.753 107.214 21.5156 107.431 21.9954C107.694 22.578 107.058 22.7733 106.698 22.9871C105.099 23.9434 103.396 24.6909 101.693 25.4317C101.174 25.6573 100.81 26.0092 100.549 26.4873C100.386 26.787 100.202 27.1288 100.429 27.4487C100.666 27.7837 101.035 27.7803 101.417 27.6928C102.461 27.452 103.428 27.0261 104.326 26.4503C104.957 26.0462 105.56 25.5967 106.187 25.1859C106.35 25.0781 106.54 24.8862 106.756 25.1236C106.966 25.3542 106.805 25.5378 106.668 25.6994C106.277 26.1641 105.87 26.6153 105.474 27.0749C105.382 27.181 105.239 27.3005 105.345 27.4503C105.46 27.612 105.61 27.484 105.727 27.4217C107.293 26.5782 108.882 25.8341 110.05 24.3441C111.231 22.8389 112.824 21.7951 114.693 21.2546C115.144 21.1233 115.599 21.1048 116.054 21.1317C116.814 21.1772 117.017 21.6217 116.559 22.2581C116.216 22.7345 115.768 23.1117 115.293 23.4551C113.825 24.5158 112.211 25.2819 110.451 25.6438C109.788 25.7802 109.523 26.0563 109.503 26.6658C109.482 27.314 109.915 27.8005 110.581 27.9201C111.114 28.016 111.636 27.942 112.156 27.8106C113.743 27.4049 115.129 26.5648 116.531 25.7516C116.69 25.659 116.792 25.5327 116.859 25.3812C118.018 22.775 119.871 20.6805 121.792 18.6535C124.759 15.5253 127.947 12.6531 131.602 10.3482C132.257 9.93571 132.939 9.56026 133.683 9.34476C134.141 9.21176 134.675 9.06696 135.044 9.49292C135.411 9.91382 135.233 10.4307 135.023 10.8701C134.275 12.4359 133.105 13.6818 131.889 14.8687C127.774 18.8892 123.261 22.3844 118.298 25.2785C117.6 25.6859 117.367 26.3038 117.627 27.1305C117.858 27.8645 118.446 27.9622 119.083 27.8965C119.784 27.8241 120.446 27.5766 121.065 27.2517C121.985 26.7719 122.876 26.2398 123.782 25.7347C124.379 25.4031 124.69 24.8003 125.105 24.3003C128.509 20.2024 131.879 16.0759 135.707 12.3635C136.352 11.7372 137.029 11.1462 137.772 10.6361C137.931 10.5267 138.093 10.4189 138.265 10.3314C138.613 10.1529 139.044 9.93403 139.334 10.2489C139.594 10.5317 139.374 10.9509 139.186 11.2691C138.411 12.5824 137.358 13.6666 136.304 14.7407C133.373 17.7292 130.238 20.4903 127.061 23.2026C125.885 24.2077 125.05 25.5041 124.042 26.6523C124.022 26.7146 123.964 26.8055 123.986 26.8325C124.062 26.9251 124.151 26.8594 124.229 26.8106C125.895 25.7347 127.509 24.5747 129.228 23.5848C129.458 23.4518 129.687 23.3137 129.928 23.2043C130.113 23.1201 130.336 22.9282 130.508 23.1807C130.645 23.3827 130.54 23.6134 130.401 23.7902C130.071 24.2111 129.728 24.6202 129.385 25.031C128.95 25.5546 128.492 26.058 128.084 26.6018C127.862 26.8964 127.511 27.2736 127.809 27.6355C128.057 27.9386 128.477 27.7399 128.825 27.6339C129.593 27.3998 130.253 26.9284 130.981 26.617C132.514 25.9604 133.567 24.6976 134.809 23.6673C136.337 22.4012 138.006 21.3927 140.054 21.2715C140.439 21.2496 140.834 21.253 141.21 21.322C141.925 21.4533 142.166 22.0039 141.768 22.6201C141.162 23.5595 140.219 24.0629 139.231 24.4805C138.926 24.6084 138.714 24.4131 138.591 24.1521C138.448 23.8491 138.729 23.7683 138.904 23.6791C139.401 23.4265 139.889 23.1656 140.325 22.817C140.62 22.5813 141.062 22.354 140.862 21.9028C140.652 21.4281 140.166 21.5762 139.764 21.6419C138.096 21.9096 136.685 22.716 135.403 23.7851C134.576 24.472 133.82 25.228 133.315 26.1927C133.109 26.5883 132.799 27.0379 133.182 27.4773C133.552 27.8999 134.063 27.8191 134.531 27.6743C136.111 27.1911 137.442 26.2853 138.616 25.1371C138.808 24.9502 138.963 24.6353 139.253 24.8492C139.594 25.1034 139.243 25.3239 139.104 25.5108C138.781 25.9469 138.55 26.4217 138.418 26.9453C138.238 27.6591 138.505 27.9285 139.209 27.7214C139.576 27.6137 139.932 27.4487 140.272 27.2685C143.138 25.7482 145.565 23.7447 147.168 20.8388C147.319 20.5627 147.489 20.2933 147.754 20.1047C147.862 20.0273 147.959 19.9869 148.076 20.0812C148.202 20.1856 148.15 20.2967 148.086 20.4027C148.022 20.5054 147.944 20.5997 147.876 20.7007C147.304 21.5274 147.541 22.0594 148.529 22.1756C148.577 22.1806 148.625 22.1756 148.674 22.184C149.057 22.248 149.577 21.9752 149.783 22.4652C149.973 22.9147 149.618 23.3036 149.383 23.6605C148.875 24.4316 148.225 25.1017 147.797 25.93C147.579 26.3526 147.223 26.8645 147.586 27.2567C147.934 27.6339 148.465 27.2971 148.852 27.0951C149.94 26.5294 151.019 25.9738 151.912 25.063C153.207 23.7413 154.704 22.6655 156.449 21.9954C156.787 21.8658 157.123 21.7496 157.492 21.7244C157.873 21.6974 158.24 21.6486 158.101 22.4349C159.059 21.2176 159.857 20.1569 160.704 19.135C163.424 15.857 166.256 12.6834 169.476 9.89025C169.82 9.59394 170.249 8.96932 170.676 9.34644C171.152 9.76735 170.564 10.2707 170.303 10.663C168.937 12.7154 167.289 14.5387 165.67 16.384C165.501 16.5759 165.258 16.7173 165.19 17.081C166.308 17.2258 167.409 17.1921 168.507 17.1887C168.758 17.1887 168.865 16.9581 169.012 16.8099C170.035 15.7694 171.081 14.7542 172.244 13.8737C172.465 13.7053 172.725 13.3484 173.057 13.6548C173.37 13.9444 173.085 14.2474 172.955 14.5118C172.477 15.4799 171.707 16.2358 170.993 17.1971C172.287 17.2443 173.5 17.2948 174.711 17.3301C175.316 17.3487 175.92 17.3369 176.525 17.3436C176.783 17.347 177.117 17.2796 177.122 17.6803C177.125 18.0541 176.813 18.0642 176.542 18.0642C175.017 18.0659 173.49 18.1366 171.972 18.0406C170.759 17.9632 169.881 18.2612 169.022 19.2225C167.176 21.2883 165.105 23.1386 163.043 24.9889C162.529 25.4485 161.968 25.9418 161.863 26.7399C161.768 27.4605 161.973 27.6945 162.686 27.5632C163.769 27.3628 164.738 26.8897 165.673 26.3257C166.273 25.9637 166.876 25.6068 167.476 25.2448C167.597 25.1724 167.719 25.0411 167.854 25.1893C167.997 25.3475 167.857 25.4721 167.746 25.5462C166.05 26.6641 164.365 27.8292 162.363 28.3124C161.145 28.6053 160.795 28.2097 160.927 26.9217C161.022 26.8409 161.048 26.7449 160.992 26.6304C160.923 26.6675 160.855 26.7028 160.787 26.7399C159.954 27.1658 159.128 27.6069 158.283 28.0093C157.961 28.1625 157.606 28.2602 157.257 28.3342C155.901 28.6221 155.447 28.1389 155.779 26.7853C155.814 26.6439 155.847 26.5025 155.881 26.3611C155.886 26.2786 155.891 26.1977 155.896 26.1152C155.839 26.1338 155.781 26.154 155.724 26.1725C154.746 26.915 153.79 27.6877 152.707 28.2753C152.519 28.378 152.327 28.4807 152.129 28.5615C151.616 28.7737 151.049 29.0245 150.561 28.644C150.048 28.245 150.245 27.6322 150.343 27.0833C150.358 27.0227 150.375 26.9621 150.39 26.8998L150.208 26.9049C149.468 27.3123 148.752 27.7669 147.949 28.0413C147.476 28.2029 146.928 28.4504 146.531 28.0059C146.16 27.5901 146.341 27.0328 146.511 26.5479C146.841 25.6051 147.511 24.8896 148.149 24.1589C148.309 23.9754 148.477 23.802 148.637 23.6184C148.764 23.472 148.925 23.3137 148.824 23.1049C148.74 22.9349 148.544 22.9399 148.374 22.9399C147.769 22.9349 147.234 22.7851 146.929 22.0173C146.158 23.4854 144.932 24.3525 144.022 25.5058C143.907 25.6523 143.722 25.7465 143.562 25.8543C142.301 26.7079 140.974 27.447 139.619 28.1373C139.448 28.2248 139.268 28.2938 139.088 28.3629C138.526 28.5834 137.87 28.9252 137.383 28.4959C136.87 28.043 137.307 27.415 137.493 26.8762C137.508 26.8358 137.49 26.7836 137.483 26.6271C136.99 26.9301 136.544 27.2146 136.084 27.4823C135.206 27.9925 134.325 28.4959 133.27 28.5161C132.086 28.5396 131.747 28.0834 132.094 26.9301C132.127 26.819 132.151 26.7045 132.201 26.5058C131.553 26.7011 131.093 27.0884 130.576 27.3561C129.613 27.8578 128.65 28.3528 127.561 28.5178C127.243 28.5666 126.894 28.6053 126.696 28.3157C126.488 28.0127 126.588 27.6608 126.751 27.346C127.336 26.2297 128.232 25.3694 129.06 24.4501C129.095 24.4131 129.13 24.3744 129.164 24.3373C129.205 24.2548 129.415 24.2313 129.275 24.0949C129.222 24.0427 129.107 24.1117 129.072 24.2161C129.007 24.2481 128.942 24.2784 128.877 24.3104L128.889 24.3121ZM163.514 23.9569C163.567 23.9131 163.621 23.8693 163.674 23.8255C165.711 22.088 167.522 20.1266 169.402 18.081C168.855 18.0171 168.499 17.9733 168.177 18.3151C166.546 20.0492 164.912 21.7766 163.522 23.7228C163.491 23.7717 163.459 23.8222 163.429 23.871C163.411 23.9282 163.366 24.0276 163.381 24.036C163.459 24.0899 163.494 24.0259 163.514 23.9552V23.9569ZM102.13 30.267C101.968 30.1441 101.883 30.2367 101.793 30.3765C101.735 30.4152 101.677 30.4539 101.617 30.4926C100.794 30.959 100.066 31.5601 99.3345 32.1493C97.8601 33.3379 96.469 34.6158 95.4694 36.2607C95.1546 36.7793 94.8547 37.318 94.898 38.1649C97.4819 35.7455 99.671 33.1999 101.802 30.6004C101.832 30.5785 101.857 30.5532 101.875 30.5213C101.96 30.4371 102.045 30.3529 102.128 30.267H102.13ZM171.637 15.1465C170.709 15.5842 170.148 16.4244 169.363 17.1315C170.251 17.2544 171.166 16.3957 171.622 15.1347C171.654 15.1162 171.687 15.096 171.719 15.0775L171.639 15.0455C171.639 15.0792 171.639 15.1128 171.639 15.1465H171.637ZM102.558 24.5495C103.794 24.0899 104.97 23.4955 106.125 22.8625C106.32 22.7564 106.735 22.6807 106.578 22.3473C106.431 22.0342 106.077 22.2614 105.862 22.3355C104.572 22.7783 103.481 23.5663 102.44 24.4316L102.282 24.6269C102.403 24.7077 102.488 24.6589 102.558 24.5495ZM158.288 23.2211C158.474 23.0713 158.676 22.9366 158.846 22.7699C160.637 21.0004 162.351 19.1619 164.05 17.2998C165.751 15.4361 167.409 13.5471 168.98 11.5755C169.172 11.3348 169.415 11.1008 169.46 10.6142C169.105 10.9274 168.843 11.1395 168.602 11.3718C166.536 13.3568 164.539 15.4075 162.649 17.5642C161.083 19.3522 159.509 21.1334 158.218 23.1437C158.198 23.1992 158.155 23.3002 158.163 23.3053C158.248 23.3558 158.27 23.2851 158.29 23.2194L158.288 23.2211ZM118.12 24.8205C118.435 24.6657 118.571 24.6135 118.693 24.5377C124.112 21.1991 128.922 17.1264 133.109 12.3046C133.522 11.8298 133.878 11.3011 134.123 10.7135C134.215 10.4947 134.286 10.2388 134.108 10.0249C133.928 9.81112 133.697 9.94918 133.498 9.99464C132.807 10.1529 132.204 10.5199 131.626 10.9088C127.489 13.6868 123.961 17.1449 120.747 20.9449C119.781 22.0864 118.878 23.2817 118.12 24.8205ZM167.894 17.9177C166.733 17.9177 165.768 17.9346 164.803 17.9093C164.434 17.8992 164.18 18.012 163.925 18.2848C161.79 20.5812 159.582 22.8036 157.237 24.8828C156.81 25.2617 156.642 25.7617 156.524 26.2819C156.292 27.3072 156.789 27.883 157.76 27.5598C159.486 26.984 161.23 26.3813 162.235 24.6303C162.534 24.1067 162.946 23.6471 163.316 23.1655C164.69 21.3742 166.221 19.7192 167.892 17.9177H167.894ZM158.098 22.4029C157.935 22.3928 157.875 22.3709 157.845 22.3911C156.004 23.637 154.01 24.6151 152.099 25.7364C151.774 25.9267 151.564 26.2163 151.389 26.5429C151.173 26.9469 151.013 27.3847 151.346 27.7669C151.672 28.1423 152.102 27.9521 152.482 27.8005C153.297 27.4739 153.975 26.9217 154.694 26.4351C156.185 25.4266 157.263 24.073 158.1 22.4029H158.098ZM138.226 10.9072C134.605 13.8855 131.699 17.5456 128.669 21.0897C128.764 21.1267 128.817 21.125 128.847 21.0981C131.846 18.4481 134.819 15.7728 137.38 12.6733C137.788 12.18 138.223 11.6749 138.226 10.9055V10.9072ZM110.038 25.2482C110.197 25.2684 110.268 25.297 110.328 25.2819C112.251 24.7886 113.955 23.876 115.428 22.5342C115.618 22.3608 115.876 22.115 115.724 21.8506C115.569 21.5813 115.233 21.6133 114.938 21.6739C112.789 22.1116 111.371 23.5545 110.038 25.2499V25.2482ZM153.192 24.6118C154.26 24.1336 155.286 23.5881 156.174 22.8103C154.991 23.0932 154.05 23.7834 153.192 24.6118Z" fill="#001C4A"/>
<path d="M21.1906 26.3341C22.3101 26.0732 23.298 25.7701 24.3243 25.6556C24.5875 25.627 24.8474 25.5613 25.1106 25.5512C25.3788 25.5411 25.757 25.3677 25.862 25.755C25.9786 26.1893 25.7004 26.5345 25.3289 26.6877C24.9324 26.8493 24.4909 26.8981 24.0694 26.9941C23.3664 27.154 22.6667 27.3392 21.9586 27.4655C20.1161 27.7938 18.8 28.8595 17.5588 30.2418C14.4884 33.6646 11.2581 36.9342 7.59469 39.729C6.88166 40.2728 6.13531 40.7644 5.31732 41.1398C4.98413 41.293 4.64927 41.4092 4.27942 41.4244C3.22653 41.4698 2.74507 41.0018 2.79672 39.9428C2.87502 38.3282 3.76964 37.1143 4.78921 35.993C7.10823 33.4423 9.98201 31.6426 12.9491 29.9909C15.0582 28.8175 17.2423 27.7955 19.5047 26.9554C19.7979 26.8459 20.0694 26.723 20.291 26.4671C23.7995 22.4298 27.2447 18.342 30.1568 13.8299C30.525 13.2609 30.8265 12.6463 31.1547 12.052C31.7478 10.9745 31.8894 9.86164 31.1664 8.81443C30.4284 7.74534 29.2639 7.65105 28.106 7.73187C25.732 7.89855 23.5713 8.79254 21.4788 9.86164C18.7933 11.2355 16.2943 12.8837 14.2269 15.1297C13.6155 15.793 13.079 16.5102 12.7725 17.3773C12.346 18.5844 12.7542 19.4498 13.9537 19.8303C15.3031 20.258 16.6742 20.1872 18.0369 19.9128C20.6175 19.3926 23.0248 18.4514 25.1489 16.8419C25.3072 16.7224 25.4938 16.4799 25.7054 16.7156C25.8653 16.8924 25.8003 17.1483 25.6754 17.3318C25.4988 17.5911 25.3172 17.8689 25.074 18.0558C21.7454 20.6317 18.0186 21.8136 13.8354 21.1318C11.9312 20.822 11.2848 19.5273 11.9329 17.6904C12.5476 15.9462 13.7804 14.6616 15.1315 13.5117C18.725 10.4509 22.7666 8.2521 27.408 7.2975C28.3026 7.11398 29.2139 7.05842 30.1435 7.20826C32.0977 7.5231 33.0956 9.17304 32.3492 11.0284C31.5795 12.941 30.3817 14.6027 29.2006 16.2627C26.7999 19.6367 24.1644 22.8204 21.4755 25.9604C21.4005 26.0479 21.3355 26.1422 21.1906 26.3341ZM17.8953 28.9033C17.7571 28.9404 17.6138 28.9639 17.4822 29.0161C14.83 30.06 12.271 31.2974 9.84707 32.8076C7.93121 34.0013 6.072 35.2758 4.65926 37.0941C4.14948 37.7507 3.73132 38.4545 3.63303 39.3131C3.49642 40.5118 4.13615 41.0472 5.24068 40.6112C5.9154 40.3452 6.52181 39.9428 7.0999 39.5C11.1299 36.4207 14.5751 32.7218 18.0003 29.001C18.017 28.9454 18.0586 28.8528 18.0436 28.841C17.9786 28.7922 17.922 28.8292 17.8937 28.905L17.8953 28.9033Z" fill="#001C4A"/>
<path d="M78.7664 18.9346C77.9751 18.7797 77.2121 18.7461 76.4724 18.5171C74.6565 17.9531 74.1267 16.7173 75.058 15.0303C76.0126 13.3013 77.5003 12.084 79.078 10.9812C82.3749 8.67637 86.0034 7.1628 89.9667 6.53818C91.7126 6.26375 93.4786 6.21829 95.2228 6.63583C95.2461 6.64088 95.2711 6.6392 95.2945 6.64425C97.4052 7.16785 97.9866 8.61576 96.6905 10.3953C94.9446 12.7911 92.5606 14.2357 89.6718 14.7997C89.277 14.8771 88.7322 14.9967 88.5606 14.4225C88.3974 13.8771 88.9005 13.6228 89.2054 13.2996C89.3153 13.1834 89.4836 13.175 89.6069 13.2642C90.0966 13.6195 90.5814 13.4208 91.0512 13.2491C92.8155 12.6076 94.3132 11.5671 95.4544 10.0569C96.5972 8.54168 96.2041 7.44565 94.3732 7.05842C91.7726 6.50788 89.232 6.93383 86.7514 7.73186C83.2879 8.8481 80.1509 10.5603 77.5519 13.1817C76.9672 13.771 76.4557 14.4225 76.1309 15.1953C75.6444 16.3553 76.0193 17.1719 77.2171 17.4834C78.6848 17.8639 80.1342 17.6349 81.5702 17.2527C82.5948 16.98 83.6011 16.6584 84.5573 16.1903C84.7173 16.1129 84.9038 15.9546 85.0738 16.1752C85.2187 16.3638 85.1138 16.5389 85.0288 16.719C84.7722 17.2561 84.2791 17.443 83.7677 17.6147C81.0338 18.5339 78.4366 19.7377 76.0976 21.4567C74.9397 22.3086 73.8702 23.2666 73.1322 24.5293C72.0759 26.3358 72.7173 27.8106 74.7698 28.1827C77.5469 28.6861 80.2391 28.2299 82.858 27.245C84.1258 26.7685 85.3187 26.1388 86.4565 25.3947C86.7164 25.2246 87.0896 24.797 87.2912 25.0916C87.5627 25.4856 87.0429 25.7482 86.7564 25.957C84.7256 27.4369 82.5182 28.5397 80.0659 29.1171C78.165 29.5633 76.2542 29.698 74.325 29.3545C74.0668 29.3091 73.8085 29.235 73.562 29.1407C71.7894 28.4689 71.133 27.0699 71.8277 25.2835C72.6124 23.2683 74.1667 21.9146 75.8627 20.7024C76.7856 20.0441 77.7868 19.5172 78.7681 18.9279L78.7664 18.9346Z" fill="#001C4A"/>
<path d="M60.6593 26.5951C59.758 27.117 59.0167 27.5699 58.2537 27.9807C57.6106 28.3275 56.9242 28.5447 56.1779 28.5194C55.2033 28.4858 54.8684 28.0531 55.1017 27.1002C55.14 26.9436 55.2933 26.8106 55.1667 26.5732C53.8855 27.3443 52.5644 28.0177 51.1167 28.4033C50.482 28.5716 49.8456 28.6811 49.1892 28.6558C47.983 28.6087 47.5515 28.1002 47.6698 26.883C47.6848 26.7197 47.6998 26.558 47.7248 26.2954C46.9035 26.7601 46.1638 27.2029 45.4024 27.6052C44.5928 28.0329 43.7781 28.4757 42.8352 28.511C42.0072 28.543 41.704 28.1019 41.9806 27.2954C42.1971 26.6624 42.5986 26.1439 43.0051 25.6287C43.7015 24.7481 44.4828 23.9484 45.3008 23.1874C45.4441 23.0544 45.5924 22.812 45.8406 23.041C46.0905 23.2716 45.9539 23.4854 45.7839 23.6723C45.0959 24.4266 44.3379 25.1135 43.7265 25.9401C43.4383 26.3307 43.1451 26.7146 43.0035 27.1944C42.8802 27.617 43.0168 27.777 43.4499 27.7753C43.9281 27.7736 44.3596 27.6002 44.7577 27.3914C45.8906 26.8005 47.0351 26.2163 48.103 25.5192C48.9076 24.9923 49.4024 24.0932 50.1888 23.5056C51.5615 22.4803 52.9759 21.5762 54.7318 21.4264C55.1633 21.3893 55.6681 21.3237 55.898 21.7984C56.1396 22.2968 55.868 22.7396 55.5398 23.1251C55.0434 23.7077 54.442 24.1555 53.7556 24.4754C53.499 24.5949 53.1558 24.6993 52.9776 24.371C52.801 24.0444 53.1258 23.9013 53.3308 23.7548C53.8255 23.4029 54.3287 23.0645 54.7235 22.5948C54.8285 22.4702 54.9784 22.3271 54.9034 22.1436C54.8151 21.9264 54.5819 21.9281 54.4036 21.9449C53.8989 21.9921 53.4074 22.1032 52.9393 22.3187C51.4366 23.0073 50.1754 23.9939 49.2108 25.3559C48.9393 25.7381 48.731 26.159 48.6944 26.6254C48.6311 27.4251 49.2808 27.9841 50.2371 27.9739C50.9201 27.9672 51.5815 27.814 52.2029 27.5396C53.9455 26.7718 55.6298 25.9603 56.9842 24.5007C58.3986 22.9753 60.1495 21.8793 62.2103 21.3876C62.8801 21.2277 63.5564 21.2277 64.2262 21.3203C64.9925 21.4247 65.2574 21.9937 64.8409 22.6352C64.2328 23.573 63.2899 24.0764 62.3003 24.4906C61.9954 24.6185 61.7822 24.4148 61.6656 24.1538C61.5306 23.8525 61.8155 23.7733 61.9904 23.6841C62.4869 23.4332 62.975 23.1706 63.4098 22.8204C63.703 22.5847 64.1395 22.3625 63.9379 21.9028C63.743 21.46 63.2799 21.5712 62.905 21.6368C60.5377 22.051 58.6885 23.3491 57.1342 25.1337C56.7193 25.6102 56.3428 26.1186 56.1662 26.7466C56.003 27.3258 56.2395 27.6877 56.8343 27.7635C57.2808 27.8191 57.7022 27.6995 58.1021 27.5312C59.4715 26.952 60.7176 26.1792 61.7439 25.0781C61.9188 24.8912 62.0904 24.6673 62.3419 24.8609C62.6468 25.0933 62.3519 25.2987 62.222 25.4704C61.8322 25.9822 61.5656 26.5446 61.4557 27.1793C61.379 27.6238 61.5623 27.8258 62.0138 27.7719C62.5285 27.7113 62.9817 27.479 63.4198 27.2298C64.5127 26.6119 65.5939 25.9721 66.6818 25.3441C66.8334 25.2566 66.9883 24.9973 67.1649 25.2313C67.3448 25.4687 67.0583 25.5748 66.9267 25.6623C65.2957 26.7432 63.6464 27.7972 61.8072 28.4959C61.3507 28.6693 60.8143 28.8545 60.4361 28.4959C60.0313 28.112 60.3295 27.5833 60.4644 27.1237C60.5027 26.9907 60.5577 26.8644 60.6543 26.5984L60.6593 26.5951Z" fill="#001C4A"/>
<path d="M38.7672 23.7162C38.1624 24.1539 37.5494 24.4351 37.1645 24.9065C35.6835 26.7248 33.5877 27.4454 31.5436 28.262C30.8739 28.5297 30.1558 28.6492 29.4261 28.6644C27.8168 28.6963 27.1538 27.7148 27.8451 26.2433C28.5815 24.6776 29.806 23.5361 31.1887 22.5646C32.2416 21.8255 33.3578 21.2026 34.6839 21.1285C34.8755 21.1184 35.0721 21.1167 35.2637 21.1352C35.95 21.2009 36.1383 21.5814 35.7701 22.1791C35.5252 22.5781 35.1787 22.8929 34.8172 23.1758C33.2545 24.4031 31.4953 25.2483 29.5661 25.654C28.9263 25.7887 28.6765 26.0766 28.6681 26.6356C28.6615 27.2484 28.943 27.7316 29.5661 27.8916C30.1375 28.038 30.7156 27.9673 31.2837 27.8209C32.6031 27.4791 33.9292 27.006 34.9305 26.1238C36.05 25.1372 37.3045 24.3543 38.4373 23.4014C38.6006 23.265 38.6706 23.1286 38.6956 22.9165C38.8955 21.2834 40.8263 19.3152 42.4356 19.1014C42.7072 19.0661 43.037 18.9415 43.2086 19.2934C43.3636 19.6099 43.1487 19.8641 42.9787 20.0863C42.1541 21.1588 41.0862 21.9703 40.0117 22.7565C39.5702 23.0798 39.5052 23.3643 39.6951 23.8374C40.0367 24.691 40.4415 25.521 40.6247 26.4369C40.9013 27.8141 40.2849 28.6593 38.8938 28.7856C37.8759 28.8782 36.9213 28.7283 36.0933 28.0734C35.9201 27.937 35.6968 27.7266 35.8234 27.5397C35.9967 27.2838 36.2066 27.5565 36.3749 27.6592C37.1062 28.1037 37.8326 28.528 38.7405 28.2182C39.5285 27.9488 39.8534 27.4336 39.7201 26.6036C39.5602 25.6136 39.0504 24.7466 38.7655 23.7179L38.7672 23.7162ZM29.3045 25.255C31.3287 24.7954 33.1162 23.9081 34.6239 22.4889C34.7922 22.3306 35.0154 22.105 34.8838 21.8575C34.7472 21.5999 34.4407 21.6066 34.1741 21.6571C31.9851 22.0663 30.5507 23.5293 29.3045 25.255ZM39.4302 22.6067C40.4148 21.9097 41.2678 21.1992 42.0341 20.3843C42.1291 20.285 42.2507 20.1705 42.1791 20.0089C42.0941 19.817 41.9408 19.9146 41.8042 19.9365C40.7297 20.1183 39.5835 21.3558 39.4302 22.6067Z" fill="#001C4A"/>
<path d="M52.899 44.6924C52.899 45.5898 52.9023 46.4888 52.8973 47.3862C52.8973 47.6404 52.9823 47.9856 52.5808 48.0007C52.1376 48.0159 52.1993 47.6421 52.1959 47.3626C52.1859 46.2885 52.1893 45.2143 52.1943 44.1402C52.1943 43.854 52.1376 43.5156 52.5058 43.4044C52.8457 43.3017 53.0372 43.5459 53.2105 43.7934C53.8785 44.748 54.5466 45.7043 55.3613 46.6488C55.3613 45.7952 55.3513 44.9399 55.3663 44.0863C55.3713 43.8253 55.2196 43.4196 55.6695 43.4011C56.1259 43.3809 56.0126 43.7849 56.0143 44.0526C56.0243 45.1503 56.0226 46.2497 56.0143 47.3475C56.0143 47.6 56.1043 47.9216 55.7361 48.0091C55.4079 48.0883 55.2713 47.829 55.1164 47.6084C54.4233 46.6168 53.7286 45.6285 53.0339 44.6385C52.9889 44.6571 52.9423 44.6739 52.8973 44.6924H52.899Z" fill="#001C4A"/>
<path d="M93.6783 46.6856C93.6783 45.736 93.6783 44.8454 93.6783 43.9531C93.6783 43.7174 93.6166 43.416 93.9731 43.3958C94.3813 43.3739 94.333 43.7006 94.3347 43.9649C94.338 45.1131 94.338 46.2596 94.3347 47.4079C94.3347 47.6436 94.393 47.9247 94.0681 48.0072C93.7832 48.0796 93.6333 47.8928 93.485 47.6806C92.7803 46.6637 92.0656 45.6535 91.216 44.4464C91.216 45.5609 91.221 46.4667 91.2126 47.3742C91.211 47.6251 91.3093 47.9736 90.9094 48.0005C90.4646 48.0308 90.5146 47.6587 90.5113 47.3793C90.5029 46.2815 90.5063 45.1821 90.5079 44.0827C90.5079 43.815 90.4796 43.5137 90.8061 43.411C91.146 43.3032 91.3426 43.5372 91.5159 43.7847C92.0456 44.5424 92.5704 45.3017 93.1052 46.0542C93.2518 46.2613 93.3484 46.5156 93.6749 46.6873L93.6783 46.6856Z" fill="#001C4A"/>
<path d="M101.662 46.6234C101.662 45.7546 101.657 44.8859 101.665 44.0171C101.667 43.7679 101.56 43.4194 101.967 43.3976C102.373 43.3757 102.318 43.7141 102.318 43.975C102.322 45.1233 102.322 46.2698 102.318 47.418C102.318 47.6554 102.37 47.9349 102.043 48.0107C101.757 48.078 101.612 47.8844 101.465 47.6739C100.761 46.6604 100.048 45.6519 99.2013 44.4481C99.2013 45.5677 99.2047 46.4769 99.198 47.3844C99.1963 47.6369 99.288 47.9837 98.8848 48.0022C98.4416 48.0208 98.5 47.6487 98.4966 47.3692C98.4883 46.2715 98.4916 45.1721 98.4933 44.0727C98.4933 43.805 98.4716 43.5036 98.8015 43.406C99.143 43.3066 99.3346 43.544 99.5079 43.7915C100.176 44.7461 100.844 45.7024 101.512 46.657C101.562 46.6452 101.612 46.6351 101.66 46.6234H101.662Z" fill="#001C4A"/>
<path d="M141.142 46.6285C141.142 45.7378 141.141 44.8472 141.142 43.9566C141.142 43.7209 141.077 43.4195 141.434 43.3976C141.842 43.3724 141.797 43.699 141.797 43.9633C141.8 45.1115 141.8 46.2581 141.797 47.4063C141.797 47.642 141.857 47.9232 141.534 48.0073C141.249 48.0814 141.099 47.8962 140.951 47.6824C140.244 46.6655 139.53 45.6553 138.68 44.4448C138.68 45.5577 138.685 46.4652 138.677 47.3709C138.675 47.6218 138.775 47.9703 138.377 47.9989C137.932 48.0309 137.979 47.6605 137.977 47.3794C137.969 46.2816 137.972 45.1822 137.975 44.0828C137.975 43.8168 137.945 43.5138 138.272 43.4094C138.612 43.3 138.808 43.5323 138.981 43.7798C139.658 44.7428 140.333 45.7075 141.007 46.6706C141.052 46.6571 141.097 46.6419 141.141 46.6285H141.142Z" fill="#001C4A"/>
<path d="M131.566 45.615C131.621 44.2412 132.632 43.2748 133.965 43.322C135.291 43.3674 136.241 44.4298 136.177 45.7969C136.112 47.1909 135.134 48.1203 133.775 48.0782C132.431 48.0378 131.509 47.0091 131.566 45.6134V45.615ZM135.438 45.6925C135.426 44.7042 134.743 43.9617 133.852 43.9685C132.962 43.9735 132.286 44.7362 132.297 45.7211C132.309 46.7195 132.979 47.4401 133.887 47.4317C134.808 47.4233 135.451 46.7027 135.438 45.6942V45.6925Z" fill="#001C4A"/>
<path d="M85.2856 45.6453C85.2856 45.1335 85.299 44.62 85.2823 44.1082C85.2656 43.6199 85.4472 43.3893 85.9587 43.4078C86.6817 43.433 87.4081 43.4128 88.1328 43.4162C88.3743 43.4162 88.6525 43.396 88.6359 43.7664C88.6209 44.0846 88.371 44.0644 88.1561 44.0661C87.6246 44.0711 87.0915 44.0997 86.5634 44.0593C86.0003 44.0172 86.022 44.3573 86.0186 44.7496C86.0137 45.1251 86.0103 45.4197 86.5318 45.3608C86.9366 45.3136 87.3514 45.3557 87.7629 45.3507C87.9545 45.349 88.1094 45.4096 88.1294 45.615C88.1561 45.8692 87.9795 45.9568 87.7646 45.9635C87.3298 45.9736 86.8949 45.9904 86.4601 45.9719C85.9503 45.95 86.0153 46.307 86.0286 46.6134C86.042 46.9181 85.8704 47.3457 86.4485 47.334C87.0282 47.3222 87.608 47.3289 88.1877 47.339C88.4043 47.3424 88.6659 47.3424 88.6725 47.6471C88.6792 47.9872 88.4226 48.0024 88.1627 48.0007C87.4147 47.9956 86.665 47.9838 85.917 48.004C85.4306 48.0175 85.279 47.7734 85.2856 47.3306C85.294 46.7699 85.2873 46.2076 85.2873 45.647L85.2856 45.6453Z" fill="#001C4A"/>
<path d="M46.9686 45.6757C46.9686 45.1386 46.9769 44.6015 46.9652 44.0644C46.9552 43.6065 47.1385 43.3944 47.6116 43.4078C48.3596 43.428 49.1093 43.4112 49.8573 43.4146C50.0789 43.4146 50.3155 43.4146 50.3188 43.7345C50.3221 44.0527 50.0922 44.0628 49.8673 44.0644C49.3126 44.0678 48.7545 44.0931 48.2014 44.0594C47.5933 44.0223 47.7266 44.4433 47.7016 44.7901C47.6749 45.1487 47.7099 45.4046 48.1797 45.3575C48.5862 45.317 48.9994 45.3524 49.4109 45.349C49.6258 45.349 49.8124 45.4029 49.8107 45.6555C49.809 45.9097 49.6074 45.9619 49.4009 45.9652C48.991 45.972 48.5779 45.9922 48.1697 45.9686C47.6133 45.9366 47.7082 46.3238 47.7049 46.6538C47.7016 46.9872 47.62 47.361 48.1714 47.3357C48.7262 47.3088 49.2826 47.3239 49.8373 47.3357C50.0722 47.3407 50.3655 47.3239 50.3505 47.6859C50.3371 47.9805 50.1072 47.9974 49.874 47.9974C49.101 47.9923 48.328 47.9856 47.555 47.999C47.1002 48.0075 46.9652 47.7617 46.9669 47.3576C46.9702 46.7969 46.9669 46.2346 46.9669 45.674L46.9686 45.6757Z" fill="#001C4A"/>
<path d="M117.28 46.1806C117.643 46.6184 117.958 46.9837 118.253 47.3642C118.371 47.5174 118.664 47.6689 118.415 47.903C118.176 48.1269 117.91 48.0275 117.717 47.8019C117.385 47.4147 117.075 47.0073 116.749 46.6167C116.584 46.4197 116.454 46.12 116.122 46.2328C115.761 46.3557 115.967 46.6874 115.929 46.9231C115.897 47.1133 115.922 47.312 115.922 47.5073C115.924 47.7683 115.904 48.0208 115.559 48.0158C115.221 48.0107 115.193 47.738 115.191 47.4938C115.183 46.322 115.186 45.1502 115.188 43.9784C115.188 43.5878 115.371 43.3976 115.769 43.4111C116.179 43.4245 116.59 43.4027 117.002 43.4195C117.945 43.4599 118.455 43.8286 118.563 44.529C118.688 45.3338 118.33 45.8203 117.282 46.1806H117.28ZM115.919 44.7798C115.919 45.2614 115.774 45.7159 116.51 45.6637C117.437 45.5981 117.888 45.391 117.848 44.8169C117.793 44.0492 117.222 44.0744 116.645 44.0155C115.942 43.9431 115.821 44.2663 115.919 44.7798Z" fill="#001C4A"/>
<path d="M71.9328 45.6519C71.9328 45.0913 71.9295 44.5323 71.9328 43.9717C71.9362 43.6333 72.0694 43.406 72.4443 43.4161C72.9974 43.4296 73.5588 43.3908 74.1019 43.475C75.2164 43.6484 75.8645 44.4515 75.9012 45.6014C75.9378 46.7816 75.3764 47.5612 74.2852 47.881C73.6671 48.0629 73.0407 47.9804 72.4176 47.9905C72.0411 47.9955 71.9328 47.7329 71.9312 47.4046C71.9278 46.8204 71.9312 46.2361 71.9312 45.6519H71.9328ZM72.6625 45.6991C72.6625 46.1116 72.6592 46.524 72.6625 46.9365C72.6642 47.1234 72.6225 47.3608 72.9074 47.3726C73.5871 47.4012 74.2885 47.4164 74.78 46.8456C75.2648 46.2833 75.3031 45.6098 75.0115 44.9347C74.725 44.2663 73.6588 43.7713 72.9158 44.0559C72.3543 44.2714 72.7692 44.859 72.6642 45.263C72.6292 45.3994 72.6592 45.5526 72.6592 45.6991H72.6625Z" fill="#001C4A"/>
<path d="M104.276 45.0981C104.276 44.6839 104.283 44.2698 104.273 43.8556C104.266 43.6064 104.324 43.4061 104.606 43.396C104.919 43.3859 105.009 43.593 105.007 43.8758C105.004 44.6318 104.999 45.3877 105.009 46.1436C105.021 46.9905 105.369 47.4013 106.068 47.4232C106.795 47.4468 107.171 47.0983 107.225 46.2447C107.273 45.4668 107.248 44.6856 107.251 43.9061C107.251 43.6468 107.263 43.3926 107.606 43.3943C107.933 43.3943 107.986 43.63 107.981 43.8994C107.964 44.7765 107.998 45.6571 107.923 46.5292C107.829 47.5949 107.155 48.1034 106.022 48.0714C104.967 48.0411 104.346 47.4619 104.281 46.4164C104.254 45.9786 104.276 45.5392 104.276 45.0998V45.0981Z" fill="#001C4A"/>
<path d="M60.1542 48.0781C59.1429 48.0831 58.3999 47.6067 58.0351 46.7194C57.6419 45.7631 57.8568 44.6065 58.5515 43.9381C59.2062 43.3084 60.2775 43.1232 61.1171 43.5172C61.3303 43.6182 61.5319 43.7697 61.6985 43.9381C61.8535 44.0947 61.9501 44.3085 61.7635 44.524C61.5436 44.7782 61.4153 44.5863 61.2387 44.4381C60.5157 43.8371 59.5728 43.8623 59.0297 44.4752C58.4249 45.1587 58.4766 46.3911 59.1363 47.0073C59.7627 47.5932 60.6406 47.5478 61.3287 46.8693C61.4803 46.7194 61.5886 46.5612 61.7952 46.7447C62.0017 46.9282 61.9484 47.1471 61.8135 47.3356C61.407 47.903 60.8122 48.0629 60.1575 48.0747L60.1542 48.0781Z" fill="#001C4A"/>
<path d="M43.4638 48.0781C42.4525 48.0831 41.7095 47.6067 41.3446 46.7194C40.9515 45.7631 41.1664 44.6065 41.8611 43.9381C42.5158 43.3084 43.587 43.1232 44.4267 43.5172C44.6399 43.6182 44.8415 43.7697 45.0081 43.9381C45.163 44.0947 45.2597 44.3085 45.0731 44.524C44.8532 44.7782 44.7249 44.5863 44.5483 44.4381C43.8253 43.8371 42.8823 43.8623 42.3392 44.4752C41.7345 45.1587 41.7861 46.3911 42.4442 47.0073C43.0706 47.5932 43.9485 47.5478 44.6366 46.8693C44.7882 46.7194 44.8965 46.5612 45.1031 46.7447C45.3096 46.9282 45.2563 47.1471 45.1214 47.3356C44.7149 47.903 44.1201 48.0629 43.4654 48.0747L43.4638 48.0781Z" fill="#001C4A"/>
<path d="M125.317 48.078C124.307 48.0814 123.564 47.5999 123.203 46.7126C122.813 45.7563 123.031 44.598 123.727 43.933C124.386 43.305 125.455 43.1215 126.295 43.5205C126.508 43.6215 126.708 43.7747 126.874 43.9447C127.029 44.103 127.119 44.3185 126.929 44.5306C126.703 44.7832 126.578 44.5761 126.405 44.433C125.685 43.8353 124.735 43.8656 124.196 44.4835C123.613 45.1502 123.644 46.3372 124.261 46.9635C124.885 47.5982 125.788 47.5679 126.503 46.8658C126.658 46.7126 126.771 46.5695 126.971 46.753C127.173 46.9382 127.116 47.1571 126.978 47.3456C126.568 47.9113 125.973 48.0662 125.318 48.078H125.317Z" fill="#001C4A"/>
<path d="M70.2441 47.7194C70.2341 47.849 70.1858 47.9551 70.0491 47.9921C69.9042 48.0325 69.7409 48.0511 69.6377 47.9416C69.526 47.8221 69.4161 47.6638 69.3878 47.5073C69.2495 46.753 68.7963 46.625 68.095 46.6234C67.4219 46.6234 67.0571 46.8035 66.9255 47.4702C66.8905 47.6521 66.8255 47.8558 66.6422 47.9669C66.509 48.0477 66.359 48.0376 66.2241 47.977C66.0525 47.9012 66.0658 47.748 66.1208 47.6032C66.6256 46.285 67.1121 44.9566 67.6552 43.6535C67.8384 43.214 68.5098 43.246 68.6914 43.6956C69.2128 44.9818 69.696 46.2833 70.1941 47.5797C70.2124 47.6251 70.2274 47.6723 70.2424 47.7177L70.2441 47.7194ZM67.4736 46.0307H68.8513C68.6281 45.433 68.4215 44.8825 68.1699 44.2091C67.8251 44.8674 67.6435 45.433 67.4736 46.0307Z" fill="#001C4A"/>
<path d="M81.4143 47.7009C81.4243 47.8373 81.3743 47.9434 81.2427 47.9838C81.0778 48.0343 80.8962 48.0612 80.7763 47.903C80.6763 47.77 80.568 47.6168 80.5397 47.4568C80.4148 46.7733 80.0183 46.6352 79.3635 46.6234C78.6472 46.61 78.2257 46.7817 78.0807 47.5208C78.0158 47.8558 77.8175 48.1622 77.4227 47.9737C77.0412 47.7919 77.3544 47.4972 77.431 47.2834C77.8558 46.1167 78.3123 44.96 78.7471 43.7966C78.8554 43.5087 79.0303 43.3623 79.3419 43.3673C79.6134 43.3724 79.7917 43.4734 79.8933 43.7428C80.3698 44.9954 80.8562 46.2429 81.3394 47.4922C81.366 47.5612 81.3877 47.6302 81.411 47.6993L81.4143 47.7009ZM80.0382 46.0443C79.7983 45.4079 79.5951 44.8657 79.3385 44.1839C79.0187 44.891 78.7921 45.4331 78.6688 46.0443H80.0399H80.0382Z" fill="#001C4A"/>
<path d="M111.213 45.9787C111.213 45.7834 111.214 45.5881 111.213 45.3928C111.206 45.0022 111.318 44.5443 111.154 44.2412C110.954 43.8691 110.45 44.12 110.081 44.0695C109.88 44.0409 109.675 44.024 109.658 43.7715C109.64 43.4701 109.858 43.4179 110.095 43.4179C111.084 43.4162 112.076 43.4179 113.065 43.4146C113.308 43.4146 113.515 43.4752 113.498 43.7698C113.483 44.019 113.29 44.056 113.08 44.0695C112.724 44.093 112.249 43.9028 112.039 44.1621C111.792 44.4668 111.962 44.9618 111.954 45.3726C111.941 46.0797 111.947 46.7885 111.951 47.4956C111.951 47.7583 111.929 47.999 111.591 48.0108C111.243 48.0243 111.216 47.7734 111.214 47.5158C111.211 47.004 111.214 46.4905 111.214 45.9787H111.213Z" fill="#001C4A"/>
<path d="M33.7588 45.6571C33.7588 45.0712 33.7588 44.4836 33.7588 43.8977C33.7588 43.63 33.8204 43.3977 34.1436 43.3943C34.4885 43.391 34.4985 43.6401 34.4968 43.9028C34.4918 44.8557 34.5185 45.8103 34.4851 46.7615C34.4685 47.2245 34.6368 47.3643 35.0682 47.3373C35.5014 47.3104 35.9379 47.3323 36.3743 47.334C36.5826 47.334 36.7808 47.3845 36.7942 47.6337C36.8108 47.9266 36.6076 47.9956 36.3627 47.9956C35.6863 47.9956 35.0083 47.9872 34.3319 47.999C33.9237 48.0057 33.7638 47.7936 33.7621 47.4148C33.7588 46.8289 33.7621 46.2413 33.7621 45.6554L33.7588 45.6571Z" fill="#001C4A"/>
<path d="M63.7485 45.6504C63.7485 45.0426 63.7535 44.4331 63.7452 43.8253C63.7419 43.5661 63.8302 43.391 64.1067 43.3943C64.3733 43.3977 64.4849 43.5678 64.4866 43.8237C64.4866 45.0645 64.4866 46.3053 64.4866 47.5461C64.4866 47.8222 64.4033 48.0293 64.0767 48.0125C63.7752 47.9973 63.7485 47.7818 63.7485 47.5478C63.7485 46.9148 63.7485 46.2817 63.7485 45.6504Z" fill="#001C4A"/>
<path d="M128.918 45.6554C128.918 45.0476 128.923 44.4381 128.915 43.8303C128.912 43.5744 128.992 43.3926 129.27 43.3926C129.537 43.3926 129.655 43.5576 129.655 43.8152C129.655 45.0796 129.655 46.3456 129.651 47.61C129.651 47.8676 129.528 48.0225 129.252 48.0107C128.953 47.9973 128.918 47.7885 128.918 47.5528C128.918 46.9197 128.918 46.2884 128.918 45.6554Z" fill="#001C4A"/>
<path d="M38.4939 45.647C38.4939 45.0393 38.4989 44.4298 38.4923 43.822C38.4889 43.561 38.5806 43.3876 38.8555 43.3927C39.122 43.3977 39.232 43.5678 39.232 43.8237C39.232 45.0645 39.232 46.3053 39.232 47.5462C39.232 47.8223 39.147 48.0277 38.8205 48.0108C38.5189 47.994 38.4956 47.7768 38.4956 47.5445C38.4956 46.9114 38.4956 46.2784 38.4956 45.647H38.4939Z" fill="#001C4A"/>
<path d="M120.356 45.7177C120.356 45.1099 120.361 44.5004 120.353 43.8926C120.349 43.6232 120.388 43.3858 120.719 43.3943C121.034 43.4027 121.097 43.6283 121.096 43.901C121.092 45.1183 121.096 46.3339 121.092 47.5511C121.092 47.8289 121.004 48.0326 120.678 48.0124C120.376 47.9939 120.356 47.775 120.356 47.5444C120.356 46.9366 120.356 46.3271 120.356 45.7193V45.7177Z" fill="#001C4A"/>
<path d="M34.8051 20.295C34.6418 20.2478 34.5052 20.2798 34.5069 20.1451C34.5069 20.0626 34.5618 19.9481 34.6285 19.906C35.3615 19.4414 36.0928 18.9716 36.8459 18.5406C37.0158 18.443 37.274 18.4396 37.4323 18.6686C37.5256 18.8033 37.4473 18.9312 37.3673 18.9902C36.5693 19.5895 35.6114 19.8522 34.8034 20.2933L34.8051 20.295Z" fill="#001C4A"/>
<path d="M48.0313 20.8709C47.5565 20.9063 47.3033 20.8153 47.3699 20.4534C47.4682 19.923 47.8347 19.6301 48.3512 19.5493C48.6744 19.4988 48.8626 19.6503 48.8243 20.0022C48.7626 20.5796 48.3961 20.8271 48.0313 20.8709Z" fill="#001C4A"/>
<path d="M133.429 42.8674C133.66 42.4398 133.945 42.162 134.27 41.9246C134.457 41.7865 134.692 41.7259 134.848 41.9296C135.015 42.1468 134.866 42.3488 134.675 42.4751C134.322 42.7074 133.955 42.9145 133.43 42.8691L133.429 42.8674Z" fill="#001C4A"/>
</svg>
