<svg width="217" height="51" viewBox="0 0 217 51" fill="none" xmlns="http://www.w3.org/2000/svg">
<g clip-path="url(#clip0_602_343)">
<path d="M7.8106 18.196C7.8106 19.4485 8.03848 20.6213 8.49444 21.7136C8.94998 22.8064 9.57421 23.7523 10.3663 24.5498C11.1581 25.3482 12.0938 25.9741 13.1738 26.4284C14.2535 26.8831 15.4052 27.1097 16.629 27.1097C17.853 27.1097 18.9986 26.8703 20.0664 26.3915C21.1338 25.9127 22.0579 25.2625 22.8381 24.4393C23.6175 23.6171 24.2356 22.6529 24.6917 21.5479C25.1472 20.4428 25.3755 19.2519 25.3755 17.975V4.41995C25.3755 3.87995 25.4834 3.37024 25.6993 2.89146C25.9153 2.41268 26.2035 1.98896 26.5633 1.6207C26.9232 1.25223 27.3492 0.963771 27.841 0.754887C28.3326 0.546448 28.8427 0.441895 29.3708 0.441895C29.9225 0.441895 30.4265 0.546448 30.8824 0.754887C31.3381 0.963771 31.7403 1.25223 32.0882 1.6207C32.4358 1.98896 32.7059 2.41268 32.8982 2.89146C33.0901 3.37024 33.1862 3.87995 33.1862 4.41995V18.1222C33.1862 20.1358 32.8623 22.045 32.2143 23.8501C31.5664 25.6551 30.6784 27.2817 29.5508 28.7305C28.4227 30.18 27.0792 31.4192 25.5194 32.4506C23.9593 33.4822 22.2679 34.2187 20.4445 34.6606V43.1326C20.4445 43.6972 20.342 44.2253 20.1384 44.7165C19.9342 45.2075 19.6526 45.6311 19.2927 45.9874C18.9326 46.3431 18.5188 46.6255 18.051 46.8347C17.5828 47.043 17.0845 47.1475 16.5571 47.1475C15.429 47.1475 14.4931 46.7667 13.7496 46.0057C13.0055 45.2444 12.6338 44.2867 12.6338 43.1326V34.624C10.8099 34.158 9.1299 33.4087 7.59462 32.377C6.05866 31.3458 4.72705 30.1062 3.59935 28.657C2.4712 27.208 1.58929 25.5876 0.953836 23.7947C0.317729 22.0025 0 20.1113 0 18.1222V4.41995C0 3.87995 0.101734 3.37024 0.30585 2.89146C0.509534 2.41268 0.785575 1.98896 1.13376 1.6207C1.4813 1.25223 1.89536 0.963771 2.37551 0.754887C2.85524 0.546448 3.35915 0.441895 3.88726 0.441895C4.41494 0.441895 4.91864 0.546448 5.39902 0.754887C5.87875 0.963771 6.29886 1.25223 6.6587 1.6207C7.01878 1.98896 7.30064 2.41268 7.50454 2.89146C7.70823 3.37024 7.8106 3.87995 7.8106 4.41995V18.196Z" fill="#FF4419"/>
<path d="M45.7833 17.5698C45.7833 18.8717 46.029 20.1056 46.5211 21.2717C47.0125 22.4382 47.6847 23.4577 48.5367 24.329C49.3882 25.2005 50.3781 25.8884 51.5063 26.3915C52.6337 26.895 53.846 27.1466 55.1416 27.1466C56.4375 27.1466 57.655 26.895 58.795 26.3915C59.9345 25.8884 60.9244 25.2005 61.7646 24.329C62.6041 23.4577 63.2637 22.4382 63.7442 21.2717C64.2238 20.1056 64.464 18.8717 64.464 17.5698C64.464 16.2438 64.2238 14.9976 63.7442 13.8311C63.2637 12.6651 62.6041 11.6523 61.7646 10.7923C60.9244 9.93287 59.9345 9.2514 58.795 8.74788C57.655 8.24479 56.4375 7.99279 55.1416 7.99279C53.8694 7.99279 52.6635 8.24479 51.5242 8.74788C50.3841 9.2514 49.3882 9.93287 48.5367 10.7923C47.6847 11.6523 47.0125 12.6651 46.5211 13.8311C46.029 14.9976 45.7833 16.2438 45.7833 17.5698ZM37.9727 17.5698C37.9727 15.1386 38.4281 12.8612 39.3403 10.737C40.2521 8.61303 41.4878 6.75321 43.0476 5.15664C44.6074 3.56073 46.425 2.30213 48.5009 1.38128C50.576 0.460207 52.7898 0 55.1416 0C57.5171 0 59.7489 0.460207 61.8365 1.38128C63.9241 2.30213 65.7417 3.56073 67.2895 5.15664C68.8371 6.75321 70.0549 8.61303 70.9428 10.737C71.8303 12.8612 72.2745 15.1386 72.2745 17.5698V30.6089C72.2745 31.1744 72.1722 31.702 71.9685 32.1929C71.7645 32.6845 71.4827 33.1138 71.1227 33.4822C70.7626 33.8504 70.3365 34.1452 69.8448 34.3661C69.3529 34.5871 68.831 34.6978 68.2794 34.6978C67.3434 34.6978 66.5517 34.4156 65.9037 33.8504C65.2559 33.2859 64.8239 32.5739 64.6079 31.7141C63.2403 32.7702 61.7582 33.6053 60.1628 34.2187C58.5667 34.8325 56.893 35.1398 55.1416 35.1398C52.7898 35.1398 50.576 34.6792 48.5009 33.7583C46.425 32.8375 44.6074 31.5796 43.0476 29.983C41.4878 28.387 40.2521 26.5203 39.3403 24.384C38.4281 22.2476 37.9727 19.9769 37.9727 17.5698Z" fill="#FF4419"/>
<path d="M85.1601 17.5698C85.1601 18.8717 85.4059 20.0992 85.898 21.2532C86.3893 22.4076 87.0615 23.4144 87.9137 24.2735C88.7652 25.1336 89.7551 25.8147 90.8832 26.3179C92.0107 26.8215 93.2226 27.073 94.5184 27.073C95.8141 27.073 97.0318 26.8215 98.1716 26.3179C99.3112 25.8147 100.301 25.1336 101.141 24.2735C101.981 23.4144 102.641 22.4076 103.121 21.2532C103.601 20.0992 103.841 18.8717 103.841 17.5698C103.841 16.2438 103.601 14.9975 103.121 13.8311C102.641 12.6651 101.981 11.6523 101.141 10.7923C100.301 9.93286 99.3112 9.2514 98.1716 8.74788C97.0318 8.24479 95.8141 7.9928 94.5184 7.9928C93.2464 7.9928 92.0405 8.24479 90.901 8.74788C89.7611 9.2514 88.7652 9.93286 87.9137 10.7923C87.0615 11.6523 86.3893 12.6651 85.898 13.8311C85.4059 14.9975 85.1601 16.2438 85.1601 17.5698ZM77.3496 17.5698C77.3496 15.1386 77.8051 12.8612 78.7172 10.737C79.6289 8.61303 80.8644 6.75321 82.4245 5.15664C83.984 3.56073 85.8018 2.30213 87.8779 1.38128C89.9529 0.460206 92.1666 0 94.5184 0C96.8941 0 99.1257 0.460206 101.213 1.38128C103.301 2.30213 105.119 3.56073 106.666 5.15664C108.214 6.75321 109.431 8.61303 110.319 10.737C111.207 12.8612 111.651 15.1386 111.651 17.5698C111.651 19.3624 111.405 21.0633 110.913 22.6714C110.421 24.2799 109.731 25.7837 108.844 27.1835C109.659 28.0921 110.331 29.2342 110.86 30.6089C111.387 31.9847 111.651 33.6791 111.651 35.6921C111.651 37.9021 111.297 39.8174 110.589 41.4383C109.881 43.0588 108.946 44.4034 107.782 45.4714C106.618 46.5397 105.274 47.3319 103.751 47.8476C102.227 48.3633 100.649 48.621 99.0175 48.621C98.2979 48.621 97.5717 48.5844 96.8401 48.5107C96.1079 48.4371 95.3939 48.4002 94.6984 48.4002C93.7625 48.4002 92.9286 48.5225 92.1969 48.7684C91.4646 49.0135 90.7268 49.4433 89.9832 50.0575C89.3111 50.647 88.5312 50.9418 87.6437 50.9418C86.8996 50.9418 86.1797 50.7264 85.4842 50.2969C84.7877 49.8671 84.2603 49.321 83.9002 48.6579C83.5404 47.995 83.402 47.2518 83.4864 46.4295C83.5702 45.6063 84.0082 44.7902 84.8001 43.9798C85.5435 43.2431 86.3777 42.6538 87.3018 42.2119C88.2251 41.7698 89.1915 41.4321 90.1992 41.1989C91.2071 40.9653 92.2267 40.8119 93.2587 40.7383C94.2903 40.6646 95.2978 40.628 96.2822 40.628C97.6737 40.628 98.8494 40.5358 99.8095 40.3517C100.769 40.1674 101.549 39.8787 102.149 39.4859C102.749 39.0932 103.181 38.5896 103.445 37.976C103.709 37.3619 103.841 36.6252 103.841 35.7658C103.841 34.9555 103.751 34.3292 103.571 33.8873C103.391 33.4453 103.205 33.0896 103.013 32.8192C101.765 33.5558 100.427 34.121 98.9996 34.5134C97.5716 34.9062 96.0779 35.1026 94.5184 35.1026C92.1666 35.1026 89.9529 34.6424 87.8779 33.7216C85.8018 32.8007 83.984 31.5484 82.4245 29.9643C80.8644 28.3807 79.6289 26.5203 78.7172 24.384C77.8051 22.2476 77.3496 19.9769 77.3496 17.5698Z" fill="#FF7400"/>
<path d="M124.536 18.1591C124.536 19.4116 124.758 20.5844 125.202 21.6771C125.646 22.7699 126.258 23.7211 127.038 24.5312C127.817 25.3418 128.741 25.9807 129.809 26.4467C130.877 26.9136 132.023 27.1466 133.246 27.1466C134.494 27.1466 135.61 26.9072 136.594 26.4284C137.578 25.9495 138.412 25.2994 139.096 24.4762C139.78 23.6538 140.307 22.6895 140.679 21.5848C141.051 20.4796 141.237 19.301 141.237 18.0487V4.41994C141.237 3.85519 141.345 3.33331 141.561 2.85455C141.777 2.37577 142.071 1.95824 142.443 1.60213C142.815 1.24648 143.241 0.96377 143.721 0.754887C144.201 0.546446 144.705 0.441895 145.233 0.441895C145.784 0.441895 146.288 0.546446 146.744 0.754887C147.2 0.96377 147.602 1.24648 147.95 1.60213C148.298 1.95824 148.568 2.37577 148.76 2.85455C148.951 3.33331 149.048 3.85519 149.048 4.41994V17.9383C149.048 20.2955 148.658 22.5182 147.878 24.605C147.098 26.6927 146.012 28.5159 144.62 30.0751C143.229 31.6346 141.561 32.8687 139.617 33.7766C137.674 34.6856 135.55 35.1399 133.246 35.1399C130.943 35.1399 128.789 34.692 126.786 33.7953C124.782 32.8994 123.036 31.6772 121.549 30.1301C120.06 28.5834 118.885 26.7784 118.021 24.7156C117.157 22.6529 116.726 20.4557 116.726 18.1222V4.41994C116.726 3.85519 116.827 3.33331 117.032 2.85455C117.235 2.37577 117.511 1.95824 117.86 1.60213C118.207 1.24648 118.621 0.96377 119.101 0.754887C119.581 0.546446 120.085 0.441895 120.613 0.441895C121.141 0.441895 121.644 0.546446 122.125 0.754887C122.605 0.96377 123.024 1.24648 123.384 1.60213C123.744 1.95824 124.026 2.37577 124.23 2.85455C124.434 3.33331 124.536 3.85519 124.536 4.41994V18.1591Z" fill="#FF4419"/>
<path d="M161.645 17.5698C161.645 18.8717 161.891 20.1056 162.383 21.2717C162.875 22.4382 163.547 23.4577 164.399 24.329C165.25 25.2005 166.24 25.8884 167.369 26.3915C168.496 26.895 169.708 27.1466 171.004 27.1466C172.3 27.1466 173.517 26.895 174.658 26.3915C175.797 25.8884 176.786 25.2005 177.627 24.329C178.467 23.4577 179.126 22.4382 179.606 21.2717C180.087 20.1056 180.325 18.8717 180.325 17.5698C180.325 16.2438 180.087 14.9976 179.606 13.8311C179.126 12.6651 178.467 11.6523 177.627 10.7923C176.786 9.93287 175.797 9.2514 174.658 8.74788C173.517 8.24479 172.3 7.99279 171.004 7.99279C169.732 7.99279 168.526 8.24479 167.387 8.74788C166.246 9.2514 165.25 9.93287 164.399 10.7923C163.547 11.6523 162.875 12.6651 162.383 13.8311C161.891 14.9976 161.645 16.2438 161.645 17.5698ZM153.835 17.5698C153.835 15.1386 154.29 12.8612 155.203 10.737C156.114 8.61303 157.35 6.75321 158.91 5.15664C160.47 3.56073 162.287 2.30213 164.363 1.38128C166.438 0.460207 168.653 0 171.004 0C173.379 0 175.611 0.460207 177.699 1.38128C179.787 2.30213 181.604 3.56073 183.151 5.15664C184.7 6.75321 185.918 8.61303 186.805 10.737C187.693 12.8612 188.136 15.1386 188.136 17.5698V30.6089C188.136 31.1744 188.034 31.702 187.831 32.1929C187.626 32.6845 187.345 33.1138 186.985 33.4822C186.625 33.8504 186.199 34.1452 185.708 34.3661C185.215 34.5871 184.694 34.6978 184.142 34.6978C183.206 34.6978 182.414 34.4156 181.766 33.8504C181.118 33.2859 180.687 32.5739 180.47 31.7141C179.103 32.7702 177.621 33.6053 176.025 34.2187C174.43 34.8325 172.756 35.1398 171.004 35.1398C168.653 35.1398 166.438 34.6792 164.363 33.7583C162.287 32.8375 160.47 31.5796 158.91 29.983C157.35 28.387 156.114 26.5203 155.203 24.384C154.29 22.2476 153.835 19.9769 153.835 17.5698Z" fill="#FF4419"/>
<path d="M202.569 30.7563C202.569 31.2969 202.473 31.8126 202.281 32.3034C202.09 32.795 201.82 33.212 201.472 33.5558C201.124 33.9 200.721 34.1764 200.266 34.3845C199.81 34.5932 199.319 34.6978 198.791 34.6978C198.238 34.6978 197.717 34.5932 197.225 34.3845C196.732 34.1764 196.306 33.9 195.948 33.5558C195.586 33.212 195.3 32.795 195.084 32.3034C194.867 31.8126 194.759 31.2969 194.759 30.7563V18.8591C194.759 16.3298 195.232 13.9478 196.181 11.7131C197.129 9.47886 198.418 7.52642 200.05 5.85645C201.682 4.18672 203.589 2.8669 205.774 1.89697C207.957 0.927053 210.272 0.44165 212.72 0.44165H212.792C214.087 0.44165 215.09 0.816534 215.798 1.56542C216.505 2.31452 216.858 3.26587 216.858 4.41991C216.858 4.98513 216.752 5.51274 216.535 6.00368C216.319 6.49526 216.026 6.91878 215.654 7.27466C215.281 7.63075 214.85 7.91346 214.357 8.12189C213.866 8.33056 213.343 8.43489 212.792 8.43489H212.72C211.353 8.43489 210.05 8.70522 208.815 9.24522C207.579 9.78567 206.505 10.5222 205.594 11.4554C204.681 12.3886 203.95 13.481 203.397 14.7334C202.846 15.9858 202.569 17.3244 202.569 18.7483V30.7563Z" fill="#FF4419"/>
</g>
<defs>
<clipPath id="clip0_602_343">
<rect width="217" height="51" fill="white"/>
</clipPath>
</defs>
</svg>
