<svg width="24" height="25" viewBox="0 0 24 25" fill="none" xmlns="http://www.w3.org/2000/svg">
<path d="M3.42857 0C1.5375 0 0 1.60156 0 3.57143V21.4286C0 23.3984 1.5375 25 3.42857 25H20.5714C22.4625 25 24 23.3984 24 21.4286V3.57143C24 1.60156 22.4625 0 20.5714 0H3.42857ZM19.3446 4.6875L13.7839 11.3058L20.325 20.3125H15.2036L11.1964 14.8493L6.60536 20.3125H4.06071L10.0071 13.231L3.73393 4.6875H8.98393L12.6107 9.68192L16.8 4.6875H19.3446ZM17.4857 18.7277L8.21786 6.18862H6.51429L15.9054 18.7277H17.4857Z" fill="#FF4419"/>
</svg>
