<svg width="40" height="40" viewBox="0 0 40 40" fill="none" xmlns="http://www.w3.org/2000/svg">
<path d="M0.69308 39.3061L3.42127 29.3907C1.73813 26.4897 0.853856 23.1968 0.853856 19.8255C0.85888 9.27487 9.4839 0.69165 20.0801 0.69165C25.2233 0.693318 30.05 2.6874 33.6809 6.30375C37.3117 9.92011 39.3097 14.7286 39.3064 19.8405C39.3014 30.3911 30.6763 38.9743 20.0801 38.9743H20.0717C16.8545 38.9743 13.6926 38.169 10.884 36.6451L0.691406 39.3061H0.69308Z" fill="url(#paint0_linear_694_113)"/>
<path d="M0 39.9983L2.82532 29.7278C1.08189 26.7217 0.165801 23.3121 0.167476 19.8191C0.1725 8.89 9.10568 0 20.0837 0C25.4112 0.00166729 30.412 2.06577 34.1718 5.81218C37.9317 9.55858 40.0017 14.5388 40 19.8358C39.995 30.7632 31.0601 39.6565 20.0837 39.6565H20.0754C16.7426 39.6565 13.4668 38.8229 10.5577 37.244L0 40V39.9983ZM11.0467 33.6543L11.6513 34.0111C14.1919 35.5116 17.106 36.3069 20.077 36.3086H20.0837C29.2078 36.3086 36.6337 28.9175 36.6371 19.8341C36.6371 15.4325 34.9188 11.2926 31.7937 8.17973C28.6686 5.06523 24.5118 3.34959 20.0904 3.34792C10.9596 3.34792 3.53375 10.7374 3.5304 19.8208C3.5304 22.9336 4.40462 25.9647 6.06096 28.5874L6.45453 29.211L4.78144 35.2899L11.0467 33.6543Z" fill="url(#paint1_linear_694_113)"/>
<path fill-rule="evenodd" clip-rule="evenodd" d="M15.1054 11.5323C14.7319 10.707 14.34 10.6903 13.985 10.677C13.6952 10.6653 13.3636 10.6653 13.032 10.6653C12.7004 10.6653 12.1612 10.7887 11.7056 11.2855C11.2501 11.7807 9.96387 12.9795 9.96387 15.4171C9.96387 17.8546 11.7475 20.2105 11.9954 20.5407C12.2449 20.8708 15.4387 26.0327 20.4964 28.0185C24.7001 29.6691 25.5559 29.3406 26.4686 29.2573C27.3814 29.1739 29.4129 28.0585 29.8282 26.903C30.2436 25.7459 30.2436 24.7556 30.1179 24.5472C29.994 24.3404 29.6624 24.217 29.1633 23.9686C28.6659 23.7202 26.2191 22.5214 25.7636 22.3563C25.308 22.1913 24.9748 22.1079 24.6432 22.6048C24.3115 23.0999 23.3586 24.2154 23.0672 24.5455C22.7775 24.8773 22.4861 24.9173 21.9887 24.6705C21.4912 24.4221 19.8885 23.9002 17.9876 22.2113C16.5088 20.8975 15.509 19.2768 15.2193 18.78C14.9295 18.2848 15.1874 18.0164 15.437 17.7696C15.6597 17.5479 15.9344 17.1911 16.1839 16.9026C16.4318 16.6125 16.5155 16.4074 16.6813 16.0773C16.8471 15.7472 16.7651 15.4571 16.6395 15.2087C16.5155 14.9602 15.5475 12.511 15.1054 11.5306V11.5323Z" fill="white"/>
<defs>
<linearGradient id="paint0_linear_694_113" x1="19.9997" y1="39.3061" x2="19.9997" y2="0.69165" gradientUnits="userSpaceOnUse">
<stop stop-color="#20B038"/>
<stop offset="1" stop-color="#60D66A"/>
</linearGradient>
<linearGradient id="paint1_linear_694_113" x1="20" y1="39.9983" x2="20" y2="-0.00166655" gradientUnits="userSpaceOnUse">
<stop stop-color="#F9F9F9"/>
<stop offset="1" stop-color="white"/>
</linearGradient>
</defs>
</svg>
